<?xml version="1.0" encoding="UTF-8"?><svg id="Layer_2" xmlns="http://www.w3.org/2000/svg" viewBox="0 0 279.63 37.71"><g id="Layer_1-2"><g><path d="M16.42,8.07c-.12-.44-.24-.87-.39-1.3-.31-.88-.91-1.42-1.86-1.55-.25-.04-.49-.05-.74-.05-2.77,0-5.53,0-8.3,0-.08,0-.17,0-.25,0-.21-.02-.26,.08-.25,.27,0,.52,.01,1.05,0,1.57,0,.23,.1,.27,.29,.27,.3,0,.61,0,.91,.04,.72,.08,1.07,.54,.99,1.25-.02,.19-.06,.38-.11,.57-.21,.81-.5,1.6-.77,2.39C4.04,17.26,2.14,22.98,.23,28.7c-.05,.15-.06,.33-.23,.43v.08c1.82,0,3.63,0,5.45,0,.57,0,.43,.06,.58-.43,.51-1.68,1.01-3.37,1.51-5.06,.09-.31,.1-.31,.42-.31,2.06,0,4.13,0,6.19,0,.31,0,.32,0,.41,.32,.48,1.71,.96,3.41,1.44,5.12,.09,.33,0,.35,.47,.35,1.87,0,3.74,0,5.62,0,.1,0,.22,.04,.31-.05,.03-.16-.05-.3-.09-.44-1.96-6.89-3.92-13.77-5.88-20.66Zm-7.87,11.38c.88-2.89,1.76-5.76,2.64-8.63,.03,0,.05,0,.08,0,.77,2.87,1.55,5.74,2.33,8.64h-5.05Z" style="fill:#003781;"/><path d="M141.1,3.34c-3.23-2.25-6.86-3.23-10.51-3.25-1.84,0-3.4,.16-4.92,.54-5.71,1.46-9.85,4.82-12.23,10.23-1.7,3.88-2.01,7.93-1.07,12.04,1.34,5.83,4.74,10.07,10.23,12.51,3.94,1.75,8.07,2.05,12.24,1.06,5.94-1.41,10.18-4.94,12.53-10.59,1.6-3.84,1.83-7.83,.9-11.86-1.03-4.46-3.4-8.05-7.17-10.67Zm3.3,21.58c-1.91,4.62-5.38,7.5-10.23,8.66-3.42,.82-6.82,.61-10.08-.77-4.33-1.83-7.1-5.08-8.43-9.57-.46-1.54-.63-3.12-.65-4.61,.02-2.84,.57-5.45,1.88-7.86,1.8-3.32,4.48-5.61,8.05-6.83,3.58-1.23,7.2-1.24,10.77,0,4.25,1.48,7.23,4.37,8.82,8.57,1.57,4.13,1.55,8.31-.14,12.4Z" style="fill:#003781;"/><path d="M279.06,13.91c-1.33-5.62-4.62-9.74-9.88-12.17-4.12-1.9-8.44-2.21-12.82-1.1-5.7,1.45-9.77,4.9-12.1,10.31-1.63,3.79-1.89,7.76-1.01,11.77,1.03,4.73,3.55,8.49,7.61,11.16,3.12,2.05,6.6,2.95,10.01,2.97,1.88,0,3.44-.15,4.97-.54,5.5-1.4,9.57-4.59,12-9.75,1.91-4.05,2.25-8.32,1.23-12.65Zm-4.2,11.71c-2.05,4.23-5.46,6.8-10.02,7.88-1.2,.28-2.42,.38-3.55,.4-2.65-.02-5.09-.52-7.38-1.7-3.28-1.7-5.61-4.28-6.9-7.73-1.58-4.24-1.55-8.51,.26-12.67,2.01-4.62,5.59-7.4,10.49-8.45,3.28-.7,6.53-.46,9.63,.86,4.48,1.9,7.31,5.29,8.51,9.98,1,3.91,.72,7.77-1.05,11.43Z" style="fill:#003781;"/><path d="M86.84,16.5c0-.63-.03-1.27-.09-1.9-.18-1.8-1.3-3.11-3.03-3.47-1.44-.3-2.85-.18-4.21,.38-.98,.4-1.81,1.04-2.6,1.73-.11,.1-.2,.22-.41,.3,0-.34,.02-.62,0-.89-.05-.81-.49-1.29-1.29-1.42-.13-.02-.27-.02-.41-.02-.41,0-.83,0-1.24,0-1.23,0-2.45,0-3.68,0-.48,0-.45-.05-.45,.43,0,.33,0,.66,0,.99,0,.2-.09,.45,.06,.6,.12,.12,.34,.03,.52,.05,.65,.06,1,.4,1.06,1.05,.02,.2,.03,.41,.03,.62,0,4.63,0,9.25,0,13.88,0,.47,.02,.4,.4,.4,1.61,0,3.22,0,4.83,0,.4,0,.4,0,.4-.4,0-.07,0-.14,0-.21v-10.78q0-.91,.72-1.47c.77-.6,1.63-.9,2.61-.8,.65,.07,.95,.36,1.06,1.01,.07,.39,.09,.79,.09,1.19,0,3.68,0,7.35,0,11.03,0,.48-.06,.44,.45,.44,1.57,0,3.14,0,4.71,0,.53,0,.47,.06,.47-.45,0-4.09,0-8.18,0-12.27Z" style="fill:#003781;"/><path d="M67.97,27.24c-.57-.06-.86-.33-.98-.89-.06-.27-.07-.55-.07-.82,0-2.88,0-5.75,0-8.63,0-.94-.08-1.87-.34-2.78-.42-1.47-1.36-2.42-2.83-2.84-.79-.22-1.59-.31-2.4-.34-1.23-.04-2.45,.05-3.66,.25-1.7,.27-3.31,.79-4.84,1.57-.18,.09-.22,.18-.15,.38,.37,.98,.72,1.96,1.08,2.94,.1,.26,.1,.27,.37,.14,1.12-.51,2.28-.89,3.49-1.11,.79-.14,1.58-.22,2.38-.13,.8,.09,1.21,.47,1.38,1.24,.06,.29,.06,.57,.06,.86,0,.36,0,.37-.37,.43-1.14,.18-2.28,.37-3.41,.61-1.05,.22-2.08,.52-3.06,.98-1.39,.65-2.32,1.7-2.71,3.19-.37,1.44-.36,2.89,.06,4.32,.4,1.4,1.32,2.29,2.76,2.61,1.02,.23,2.05,.19,3.07,0,1.1-.2,2.09-.66,2.99-1.32,.26-.19,.53-.39,.85-.62-.01,.3,.01,.53,.06,.75,.12,.56,.44,.93,1,1.09,.23,.06,.46,.08,.69,.08h2.44c.77,0,1.54,0,2.31,0,.35,0,.35,0,.35-.36,0-.33,0-.66,0-.99q0-.56-.54-.62Zm-6.66-3.01c-.63,.59-1.33,1.06-2.18,1.28-.34,.09-.68,.1-1.02,.07-.48-.05-.8-.31-.92-.76-.19-.77-.19-1.55,.04-2.32,.15-.49,.52-.79,.98-1,.84-.38,1.73-.62,2.63-.8,.2-.04,.39-.13,.6-.08,.05,.08,.04,.16,.04,.25,0,.98,0,1.95,0,2.93,0,.17-.03,.31-.17,.44Z" style="fill:#003781;"/><path d="M220.19,28.8v-11.27c0-.83-.05-1.65-.17-2.47-.26-1.75-1.23-2.93-2.85-3.61-.73-.31-1.5-.45-2.28-.51-1.3-.09-2.59-.03-3.87,.17-1.74,.27-3.39,.83-4.91,1.72-.26,.15-.26,.16-.17,.45,.32,.98,.64,1.96,.96,2.94,.03,.09,.04,.19,.13,.26,.18-.02,.33-.13,.48-.21,.83-.4,1.65-.81,2.57-1,1-.2,2-.36,3.03-.2,1.13,.17,1.7,.81,1.72,1.95,0,.21,0,.41,0,.62,0,.31,0,.32-.32,.31-1.02-.01-2.04,.03-3.05,.17-1.12,.16-2.22,.41-3.24,.9-1.45,.69-2.5,1.75-2.95,3.31-.38,1.29-.4,2.61-.05,3.91,.46,1.72,1.6,2.71,3.33,3.03,1,.18,2,.14,2.99-.06,1.17-.24,2.18-.74,2.98-1.64,.05-.06,.11-.12,.17-.18,.08-.08,.14-.2,.27-.16,.15,.04,.08,.18,.09,.28,0,.43,0,.85,0,1.28,0,.44-.05,.41,.39,.41,.94,0,1.87,0,2.81,0,.56,0,1.13,0,1.69,0,.2,0,.28-.06,.25-.26,0-.05,0-.11,0-.17Zm-5.55-4.2c-.84,.85-1.86,1.14-3.02,.96-.61-.09-1.01-.48-1.16-1.08-.12-.46-.11-.93,.02-1.39,.18-.64,.57-1.08,1.18-1.34,.94-.39,1.93-.53,2.94-.48,.16,0,.22,.06,.22,.22,0,.47,0,.93,0,1.4,0,.43,0,.85,0,1.28,0,.18-.06,.31-.18,.43Z" style="fill:#003781;"/><path d="M173.1,5.24c-5.68,0-11.37,0-17.05,0-.08,0-.17,0-.25,0-.21-.03-.25,.07-.25,.26,0,1.23,0,2.45,0,3.68,0,.21,.06,.31,.28,.28,.08-.01,.16,0,.25,0,1.69,0,3.39,0,5.08,0q.53,0,.53,.55s0,.06,0,.08v9.25c0,3.17,0,6.33,0,9.5,0,.39-.05,.39,.37,.39,1.69,0,3.39,0,5.08,0,.31,0,.31,0,.32-.32,0-.1,0-.19,0-.29,0-6.22,0-12.44,0-18.67,0-.11,0-.22,0-.33,0-.12,.05-.18,.17-.17,.1,0,.19,0,.29,0,1.78,0,3.55,0,5.33,0,.35,0,.35,0,.36-.36,0-1.11,0-2.23,0-3.34,0-.59,.08-.5-.49-.5Z" style="fill:#003781;"/><path d="M103.16,25.42c-.07,0-.14,0-.21,0-2.27,0-4.54,0-6.82,0-.13,0-.27,.04-.42-.06,.26-.37,.51-.71,.75-1.06,2.16-3.03,4.31-6.05,6.47-9.08,.12-.17,.23-.32,.23-.55-.01-1.06,0-2.12,0-3.18,0-.28,0-.28-.31-.29-.06,0-.11,0-.17,0-3.73,0-7.46,0-11.19,0-.17,0-.33,0-.5,.02-.93,.11-1.48,.63-1.52,1.55-.04,1.16-.02,2.31-.03,3.47,0,.14,.04,.2,.19,.2,.56,0,1.13,0,1.69,0,.16,0,.22-.06,.21-.22,0-.1,0-.19,0-.29,.07-.62,.41-1,1.04-1.01,1.39-.03,2.78,0,4.17,0,.01,0,.02,.01,.05,.03-.03,.14-.11,.22-.17,.3-2.35,3.31-4.71,6.62-7.07,9.92-.16,.22-.24,.44-.24,.72,.01,.96,0,1.93,0,2.89,0,.52,0,.44,.45,.44,2.88,0,5.76,0,8.63,0,1.58,0,3.17,0,4.75,0,.34,0,.34,0,.34-.34,0-1.03,0-2.07,0-3.1,0-.36,0-.36-.36-.36Z" style="fill:#003781;"/><path d="M235.03,24.35c-.4,.23-.73,.44-1.09,.62-.93,.49-1.92,.73-2.98,.62-.89-.09-1.59-.51-2.1-1.24-.27-.39-.46-.81-.59-1.27-.35-1.21-.38-2.44-.29-3.68,.06-.83,.19-1.64,.52-2.41,.61-1.46,1.77-2.13,3.42-2.04,.95,.05,1.75,.43,2.48,1.01,.16,.13,.32,.25,.46,.36,.05-.02,.07-.03,.07-.03,.28-1.09,.56-2.18,.84-3.27,.05-.18-.03-.28-.16-.38-.52-.42-1.08-.77-1.69-1.02-1.32-.56-2.7-.73-4.12-.6-2.9,.26-5.04,1.67-6.41,4.25-.69,1.3-1.01,2.7-1.11,4.15-.12,1.71,.04,3.39,.63,5,.85,2.31,2.39,3.93,4.77,4.67,1.58,.5,3.2,.5,4.81,.15,1.13-.24,2.15-.74,3.09-1.42,.12-.09,.25-.17,.2-.36-.25-1.03-.5-2.06-.75-3.12Z" style="fill:#003781;"/><path d="M29.74,28.66v-11.69c0-3.32,0-6.64,0-9.96,0-1.16-.66-1.82-1.82-1.84-.23,0-.47,0-.7,0-1.46,0-2.92,0-4.38,0-.51,0-.45-.05-.45,.47,0,.33,0,.66,0,.99,0,.19-.05,.43,.04,.56,.12,.16,.38,.06,.58,.1,.04,0,.08,0,.12,.01,.53,.07,.85,.38,.91,.91,.03,.26,.04,.52,.04,.78,0,6.53,0,13.05,0,19.58,0,.11,0,.22,0,.33,0,.29,0,.3,.3,.3,1.69,0,3.39,0,5.08,0,.21,0,.31-.05,.28-.27-.01-.09,0-.19,0-.29Z" style="fill:#003781;"/><path d="M39.35,17.85c0-3.52,0-7.05,0-10.57,0-.21,0-.41-.02-.62-.08-.74-.55-1.26-1.28-1.43-.2-.05-.41-.06-.61-.06-.85,0-1.71,0-2.56,0-.87,0-1.73,0-2.6,0-.21,0-.29,.06-.28,.28,.01,.44,0,.88,0,1.32,0,.61-.04,.47,.47,.52,.12,.01,.25,0,.37,.03,.43,.09,.71,.33,.81,.78,.05,.24,.06,.49,.06,.74,0,5.63,0,11.26,0,16.89,0,1.03,0,2.06,0,3.1,0,.44-.03,.39,.41,.39,1.6,0,3.19,0,4.79,0,.51,0,.46,.07,.46-.46,0-3.63,0-7.27,0-10.9Z" style="fill:#003781;"/><path d="M194.8,11.31c-.34-.1-.69-.17-1.05-.19-1.17-.05-2.14,.41-2.98,1.19-.34,.32-.65,.68-.92,1.06-.08,.11-.14,.27-.31,.21-.16-.05-.08-.21-.09-.32,0-.52,0-1.05,0-1.57,0-.52,.05-.47-.45-.47-1.21,0-2.42,0-3.63,0-.25,0-.5,0-.74,0-.28,0-.28,0-.29,.31,0,.08,0,.17,0,.25v11.48c0,1.86,0,3.72,0,5.57,0,.41-.05,.39,.41,.39,1.22,0,2.45,0,3.67,0,.37,0,.74,0,1.11,0,.2,0,.27-.07,.25-.26,0-.08,0-.16,0-.25,0-2.53,0-5.06,0-7.6,0-1.18,0-2.37,0-3.55,0-.18,0-.34,.17-.47,.64-.52,1.33-.92,2.16-1.04,.8-.12,1.59-.06,2.37,.15,.21,.05,.41,.15,.66,.14,0-.31,0-.61,0-.91,0-1.22,0-2.45,0-3.67,0-.35,0-.35-.34-.44Z" style="fill:#003781;"/><path d="M49.1,28.68c0-2.59,0-5.17,0-7.76s0-5.12,0-7.68c0-.15,0-.3-.01-.45-.07-.93-.7-1.56-1.64-1.57-1.79-.02-3.58,0-5.37-.01-.23,0-.27,.1-.27,.29,.01,.41,0,.83,0,1.24q0,.51,.51,.54c.7,.04,1.08,.41,1.13,1.11,.01,.15,0,.3,0,.45,0,4.67,0,9.33,0,14,0,.38,0,.38,.38,.38,1.09,0,2.17,0,3.26,0,.58,0,1.16,0,1.73,0,.2,0,.28-.06,.26-.26-.01-.1,0-.19,0-.29Z" style="fill:#003781;"/><path d="M202.05,11.22c-1.62,0-3.25,0-4.87,0-.2,0-.32,.05-.29,.28,.01,.08,0,.16,0,.25v8.51c0,2.88,0,5.75,0,8.63,0,.34,0,.34,.33,.34,1.6,0,3.19,0,4.79,0,.32,0,.32,0,.32-.27,0-.08,0-.17,0-.25V11.74c0-.08,0-.17,0-.25,.03-.23-.08-.27-.29-.27Z" style="fill:#003781;"/><path d="M180.46,11.22c-1.62,0-3.25,0-4.87,0-.21,0-.31,.05-.29,.27,0,.08,0,.16,0,.25,0,2.84,0,5.67,0,8.51s0,5.64,0,8.46q0,.51,.53,.51c1.47,0,2.95,0,4.42,0,.53,0,.48,.07,.48-.49,0-5.67,0-11.34,0-17.01,0-.08,0-.17,0-.25,.02-.21-.08-.25-.27-.25Z" style="fill:#003781;"/><path d="M161.97,30.48c-.25,0-.32,.1-.38,.32-.59,2.18-1.18,4.35-1.77,6.52-.03,.12-.08,.23-.04,.38h.36c.98,0,1.95-.01,2.93,0,.31,0,.46-.1,.6-.37,1.17-2.16,2.36-4.32,3.55-6.47,.06-.1,.15-.2,.15-.36-.07,0-.11-.02-.15-.02-1.75,0-3.5,0-5.24,0Z" style="fill:#003781;"/><path d="M47.73,5.1c-1.16-.46-2.35-.46-3.5,0-.98,.39-1.48,1.16-1.5,2.21-.02,1.07,.44,1.85,1.42,2.31,.57,.27,1.18,.35,1.83,.34,.61,.01,1.22-.07,1.8-.32,.99-.44,1.46-1.23,1.45-2.29,0-1.06-.49-1.86-1.49-2.26Z" style="fill:#003781;"/><path d="M201.35,5.17c-1.15-.48-2.34-.48-3.5-.03-1,.39-1.53,1.21-1.53,2.28,0,1.06,.54,1.88,1.52,2.29,.55,.23,1.14,.3,1.73,.32,.6-.03,1.18-.09,1.74-.32,.97-.41,1.51-1.23,1.5-2.3,0-1.05-.48-1.83-1.46-2.24Z" style="fill:#003781;"/><path d="M179.71,5.15c-.55-.24-1.13-.32-1.59-.32-.82,0-1.41,.1-1.91,.32-.98,.43-1.48,1.18-1.48,2.27,0,1.08,.48,1.86,1.47,2.27,1.17,.48,2.37,.48,3.54,0,1.02-.41,1.47-1.23,1.46-2.32,0-1.06-.52-1.8-1.48-2.22Z" style="fill:#003781;"/><path d="M133.01,18.39c0-3.25,0-6.5,0-9.75,0-.26,0-.52-.04-.78-.17-.96-.58-1.39-1.55-1.46-1.7-.12-3.41-.02-5.12-.05-.19,0-.23,.09-.22,.26,0,.47,0,.94,0,1.4,0,.19-.07,.42,.04,.56,.12,.16,.36,.04,.55,.07,.03,0,.05,0,.08,0,.58,.05,.84,.3,.89,.88,.03,.3,.03,.6,.03,.91,0,5.99,0,11.98,0,17.97,0,.52-.05,.47,.46,.47,1.47,0,2.95,0,4.42,0,.52,0,.47,.06,.47-.45,0-3.35,0-6.69,0-10.04Z" style="fill:#003781;"/><path d="M140.66,13.39c0-.29-.01-.58-.03-.87-.07-.97-.53-1.47-1.49-1.63-.12-.02-.25-.03-.37-.03-1.05,0-2.09,0-3.14,0-.2,0-.32,.04-.29,.27,.01,.08,0,.16,0,.25V28.34q0,.54,.56,.54c1.42,0,2.83,0,4.25,0,.55,0,.51,.09,.51-.5,0-4.99,0-9.99,0-14.98Z" style="fill:#003781;"/><path d="M125.34,28.33V11.23c0-.38,.03-.36-.35-.36-.96,0-1.93,0-2.89,0-.26,0-.52,.03-.78,.08-.66,.15-1.05,.55-1.2,1.21-.07,.33-.08,.65-.08,.98v15.24c0,.08,0,.17,0,.25-.02,.21,.08,.25,.26,.25,1.6,0,3.19,0,4.79,0,.21,0,.27-.08,.25-.27,0-.1,0-.19,0-.29Z" style="fill:#003781;"/><path d="M274.02,21.04v-6.82c0-.08,0-.17,0-.25,0-.16-.07-.22-.22-.21-.1,0-.19,0-.29,0-2.66,0-5.31,0-7.97,0-.15,0-.3,.03-.47-.04,1.47-2.41,.66-4.8-.72-6.06-1.55-1.42-3.84-1.63-5.62-.52-.89,.56-1.53,1.33-1.9,2.32-.55,1.49-.33,2.91,.49,4.26-.16,.06-.29,.04-.41,.04-2.69,0-5.37,0-8.06,0-.1,0-.19,0-.29,0-.16-.01-.22,.07-.21,.22,0,.07,0,.14,0,.21v6.9c0,.07,0,.14,0,.21,0,.13,.05,.21,.19,.2,.1,0,.19,0,.29,0,1.79,0,3.58,0,5.37,0,.94,0,1.87,0,2.81,0,.31,0,.31,0,.32,.32,0,.43,0,.85,0,1.28,0,2.33,0,4.65,0,6.98,0,.36,0,.36,.35,.37,.04,0,.08,0,.12,0,2.26,0,4.52,0,6.77,0,.53,0,.46,.06,.47-.46,0-2.7,0-5.4,0-8.1,0-.4-.05-.4,.4-.4,.07,0,.14,0,.21,0,2.62,0,5.23,0,7.85,0,.1,0,.19,0,.29,0,.15,0,.24-.05,.23-.21,0-.08,0-.16,0-.25Zm-9.35-.43c-1.74,1.96-4.69,2.11-6.62,.35-1.91-1.75-2.02-4.72-.23-6.6,1.87,1.81,4.71,1.91,6.71,.02,1.47,1.35,1.92,4.21,.13,6.23Z" style="fill:#003781;"/></g></g></svg>