<?xml version="1.0" encoding="UTF-8"?><svg id="Layer_2" xmlns="http://www.w3.org/2000/svg" viewBox="0 0 158.28 50.54"><g id="Layer_1-2"><g><path d="M116.54,20.71c3.44-5.97,6.75-12.02,10.38-17.88,2.35-3.8,7.98-3.73,10.57-.06,1.1,1.56,1.97,3.29,3.14,5.27-1.68-.47-3.03-.93-4.45-1.03-3.15-.23-6,.39-8.29,2.7-1.09,1.1-2.29,2.1-3.18,3.39-2.15,2.47-4.57,4.67-6.87,6.99-.34,.34-.66,.84-1.29,.62Z" style="fill:#fecc00;"/><path d="M79.07,36.43c-25.99,0-51.98,0-77.98,.02-.8,0-1.15-.1-1.09-1.02,.1-1.36,.02-1.36,1.43-1.36,51.9,0,103.8,0,155.7,0q1.14,0,1.14,1.1c0,.26-.02,.51,0,.77,.05,.43-.16,.55-.54,.51-.2-.02-.4,0-.6,0-26.02,0-52.04,0-78.06,0Z" style="fill:#ec1f24;"/><path d="M82.49,13.35c1.75-1.16,3.65-1.81,5.76-1.78,1.49,.02,2.8,.5,3.77,1.66,.33,.4,.52,.39,.94,.11,2.16-1.44,4.56-2.08,7.12-1.66,2.71,.44,4.21,2.29,4.38,5.07,.22,3.63,.05,7.26,.11,10.89,.01,.71-.25,1.05-1.01,1-.68-.04-1.37,0-2.05-.01-.98,0-1.14-.17-1.15-1.14,0-3.09,0-6.18,0-9.28,0-.45,0-.9-.15-1.35-.33-1.05-.99-1.65-2.09-1.68-1.6-.05-3.06,.49-4.43,1.29-.33,.19-.34,.49-.31,.81,.26,3.46,.08,6.92,.14,10.37,.01,.67-.25,1.01-.96,.98-.65-.03-1.31,0-1.96,0-.95,0-1.16-.19-1.17-1.14-.02-1.76,0-3.52,0-5.28,0-1.5,.01-3.01,0-4.51-.02-1.86-1.19-2.81-3.01-2.48-.39,.07-.78,.16-1.16,.27-2.42,.76-2.64,1.05-2.64,3.53,0,2.84-.02,5.67,.01,8.51,0,.8-.26,1.15-1.09,1.1-.77-.05-1.54-.01-2.3-.01-.53,0-.77-.26-.77-.79,0-5.02,0-10.04,0-15.06,0-.5,.25-.73,.72-.75,.57-.03,1.14-.04,1.7-.04,1.35,0,1.43,.07,1.62,1.38Z" style="fill:#12acab;"/><path d="M131.77,18.49c.76-.76,1.52-1.53,2.29-2.28,2.96-2.88,7.54-2.65,10.45-.95,2.43,1.42,4.24,3.49,6.01,5.6,1.86,2.22,3.58,4.55,5.75,6.5,.63,.57,1.3,1.09,1.99,1.66-1.75,1.49-3.82,2.14-6.03,2.49-3.59,.57-6.43-.81-8.92-3.23-1.65-1.6-3.2-3.31-5.09-4.65-3.56-2.53-7.49-2.51-11.1,0-.14,.1-.29,.17-.44,.25-.06-.05-.1-.12-.12-.2,.15-.63,.86-.79,1.14-1.31,.41-.4,.87-.74,1.21-1.2,.35-.34,.74-.64,1.06-1.01,.3-.28,.59-.57,.87-.87,.27-.32,.67-.47,.92-.81Z" style="fill:#fdcc08;"/><path d="M21.62,27.8c-.06-.27-.16-.54-.26-.8-2.42-5.88-4.82-11.76-7.28-17.62-1.41-3.34-.42-2.69-4.15-2.79-.85-.02-1.27,.29-1.58,1.07-1.81,4.51-3.67,8.99-5.5,13.49-.88,2.14-1.76,4.29-2.61,6.44-.33,.83-.19,1.03,.68,1.04,.85,0,1.71-.03,2.56,.01,.65,.03,.98-.27,1.19-.84,.43-1.19,.92-2.37,1.35-3.57,.14-.4,.32-.58,.78-.58,2.62,.02,5.23,.02,7.85,0,.42,0,.6,.15,.74,.52,.28,.8,.61,1.58,.91,2.37,.94,2.46,.64,2.05,3.08,2.08,.54,0,1.08,0,1.62,0,.58,0,.76-.31,.64-.82Zm-8.45-7.53c-1.82-.04-3.64-.01-5.6-.01,1.06-2.81,2.09-5.55,3.17-8.4,.78,2.72,1.88,5.19,2.84,7.72,.17,.46,.26,.71-.41,.69Z" style="fill:#12acab;"/><path d="M75.61,19c-.35-4.63-3.35-7.43-7.4-7.43-2.56-.03-4.36,.39-5.91,1.56-2.29,1.73-3.13,4.15-3.22,6.9-.05,1.48,.14,2.94,.69,4.33,1.27,3.21,3.82,4.59,7.12,4.71,3.67,.14,6.91-1.52,8.21-5.3,.54-1.55,.63-3.14,.5-4.77Zm-4.99,4.73c-.75,1.49-1.99,2.08-3.63,1.99-1.45-.08-2.4-.83-2.94-2.1-.8-1.89-.84-3.86-.29-5.81,.56-1.98,2.03-3.09,3.83-2.97,1.86,.12,3.13,1.32,3.53,3.33,.14,.7,.25,1.39,.19,2.02,.04,1.29-.14,2.46-.69,3.54Z" style="fill:#12acab;"/><path d="M29.52,11.56c1.82,0,3.35,.34,4.84,.94,.54,.22,.64,.53,.5,1.06-.59,2.19-.58,2.18-2.75,1.61-.88-.23-1.76-.44-2.69-.37-.9,.07-1.66,.62-1.81,1.31-.15,.68,.27,1.33,1.2,1.74,1.17,.51,2.35,.98,3.53,1.47,2.31,.97,3.35,2.48,3.26,4.73-.08,2.11-1.42,3.81-3.62,4.53-2.83,.94-5.54,.4-8.2-.68-.03-.01-.06-.01-.08-.03-1.03-.97,.1-1.81,.21-2.7,.08-.64,.63-.5,1.08-.31,1.05,.43,2.14,.73,3.26,.93,.75,.13,1.47,.09,2.18-.19,.58-.23,1.02-.61,1.12-1.28,.1-.69-.16-1.22-.73-1.6-.9-.62-1.96-.88-2.96-1.27-1.16-.46-2.34-.85-3.25-1.78-2.14-2.19-1.67-5.65,1.02-7.16,1.27-.71,2.64-1,3.88-.95Z" style="fill:#12acab;"/><path d="M51.55,13.39c1.38-.92,2.81-1.52,4.38-1.73,2.51-.33,2.45,.02,1.75,1.93-.07,.19-.15,.37-.17,.57-.1,.79-.49,1.04-1.31,1.03-1.48,0-2.81,.56-4.05,1.38-.39,.26-.38,.58-.38,.95,0,3.26,0,6.53,0,9.79,0,1.22-.09,1.31-1.3,1.31-.65,0-1.31,0-1.96,0-.62,0-.94-.3-.94-.94,0-4.94,0-9.87,0-14.81,0-.59,.31-.83,.82-.87,.6-.04,1.19-.03,1.79-.02,1.22,0,1.31,.09,1.38,1.42Z" style="fill:#12acab;"/><path d="M43.11,20.84c0,2.19,0,4.37,0,6.56,0,1.08-.15,1.22-1.24,1.22-.57,0-1.14,0-1.71,0-1.07,0-1.31-.23-1.31-1.29,0-2.61,0-5.22,0-7.83,0-1.79,0-3.58,0-5.36,0-1.4,.9-2.35,2.15-2.34,1.22,.02,2.09,.96,2.1,2.31,.01,2.24,0,4.48,0,6.73Z" style="fill:#12acab;"/><path d="M116.52,20.75c.34-.05,.51-.34,.72-.56,2.47-2.45,4.93-4.91,7.4-7.36,.22-.21,.39-.5,.72-.57-1.22,2.13-1,4.1,.64,5.91-.14,.72-.83,.79-1.32,1.01-1.57,.72-3.13,1.46-4.7,2.16-1.34,.6-2.62,1.35-4.02,1.81-.19,.06-.38,.14-.56-.02,.05-.95,.63-1.65,1.11-2.4Z" style="fill:#cb912a;"/><path d="M57.27,47.53c0-1.61,.01-3.22,0-4.84,0-.5,.04-.76,.67-.76,.64,0,.73,.24,.72,.8-.03,2.27,0,4.54-.03,6.81,0,.29,.26,.78-.24,.85-.46,.07-.98,.2-1.36-.38-1.07-1.64-2.2-3.23-3.31-4.84-.08-.11-.16-.22-.38-.53,0,1.79-.06,3.36,.03,4.92,.05,.86-.32,.91-.98,.87-.38-.02-.48-.14-.48-.5,.01-2.5,0-4.99,0-7.49,0-.23-.01-.49,.32-.48,.46,.02,.93-.15,1.28,.4,.89,1.38,1.85,2.72,2.78,4.07,.27,.39,.54,.78,.81,1.17,.05-.03,.11-.05,.16-.08Z" style="fill:#050808;"/><path d="M24.69,47.73c0-1.86,.03-3.47-.01-5.08-.02-.58,.18-.71,.72-.71,.53,0,.75,.1,.74,.7-.04,2.32,0,4.65-.03,6.97,0,.27,.22,.73-.23,.78-.43,.05-.94,.23-1.3-.32-.97-1.46-1.98-2.89-2.98-4.34-.22-.32-.45-.65-.84-1.19v3.03c0,.71-.04,1.42,.01,2.12,.05,.61-.16,.75-.75,.74-.55,0-.65-.19-.65-.69,.03-2.29,0-4.59,.02-6.89,0-.3-.24-.77,.23-.87,.5-.1,1.03-.17,1.42,.43,.84,1.31,1.75,2.58,2.63,3.86,.28,.41,.58,.82,1.01,1.44Z" style="fill:#050808;"/><path d="M94.06,44.62c0,1.88-.02,3.5,.01,5.11,.01,.55-.13,.7-.69,.72-.63,.01-.74-.19-.73-.77,.03-2.3,0-4.6,.02-6.9,0-.27-.21-.73,.21-.79,.46-.06,.98-.23,1.37,.35,1.11,1.68,2.27,3.32,3.41,4.98,.06,.08,.12,.17,.32,.44,0-1.83,.02-3.42,0-5.02,0-.53,.04-.81,.7-.82,.7-.01,.69,.33,.68,.83-.02,2.21,0,4.43-.02,6.64,0,.34,.28,.86-.26,1-.55,.14-1.05,.03-1.43-.57-.94-1.49-1.97-2.91-2.97-4.36-.15-.22-.33-.44-.63-.85Z" style="fill:#040707;"/><path d="M29.79,44.59c0,1.91-.03,3.58,.02,5.25,.02,.63-.29,.58-.72,.6-.48,.02-.69-.06-.68-.63,.04-2.32,0-4.65,.03-6.97,0-.28-.25-.77,.24-.84,.47-.07,.96-.17,1.34,.42,1.05,1.62,2.17,3.18,3.27,4.76,.09,.14,.19,.27,.43,.6,0-1.82,.03-3.44-.01-5.06-.01-.59,.14-.76,.74-.76,.61,0,.68,.24,.68,.75-.02,2.3,0,4.59-.03,6.89,0,.27,.29,.77-.25,.83-.47,.05-.97,.16-1.34-.42-1.03-1.59-2.13-3.14-3.21-4.7-.12-.18-.25-.35-.51-.69Z" style="fill:#040707;"/><path d="M132.14,47.19c-.14-.25-.3-.41,.1-.65,1.26-.74,1.61-1.59,1.27-2.81-.3-1.08-1.2-1.73-2.51-1.76-1-.02-1.99,.02-2.99-.02-.55-.02-.66,.18-.65,.69,.03,2.32,.03,4.65,0,6.97,0,.58,.06,.85,.76,.84,.69,0,.72-.31,.69-.82-.03-.56,0-1.13,0-1.7,0-1.17,0-1.14,1.17-1.1,.35,.01,.5,.16,.63,.43,.33,.66,.75,1.28,1.01,1.96,.4,1.03,1.03,1.5,2.23,1.1-.58-1.06-1.14-2.1-1.71-3.13Zm-.78-1.56c-.72,.23-1.56,.32-2.18,.08-.84-.33-.2-1.28-.36-1.94-.07-.3-.06-.65,.44-.62,.28,.02,.57,0,.85,0,0-.01,0-.02,0-.03,.39,.04,.8,.03,1.18,.12,.61,.13,.9,.57,.92,1.17,.02,.6-.26,1.03-.85,1.22Z" style="fill:#050808;"/><path d="M81.23,46.74c1.42-.75,1.94-1.68,1.65-2.91-.3-1.23-1.27-1.87-2.86-1.88-.88,0-1.76,.02-2.65-.01-.47-.02-.64,.12-.63,.61,.02,2.44,.03,4.88,0,7.31,0,.57,.27,.55,.67,.55,.43,0,.77,.03,.73-.6-.06-.82-.02-1.64-.01-2.47,0-.21-.08-.44,.26-.52,.76-.19,1.36,.05,1.73,.76,.31,.6,.62,1.2,.94,1.8q.62,1.16,2.1,.92c-.65-1.21-1.29-2.39-1.93-3.58Zm-.42-1.16c-.79,.33-1.63,.15-2.44,.17-.24,0-.24-.19-.25-.36,0-.31,0-.62,0-.93,0-1.3,0-1.31,1.35-1.3,.39,0,.8,0,1.18,.09,.56,.13,.85,.57,.89,1.11,.05,.56-.21,1-.73,1.22Z" style="fill:#050808;"/><path d="M141.6,44.62c-.19-1.7-1.36-2.72-3.09-2.74-1.75-.02-2.96,.96-3.2,2.63-.08,.56-.08,1.13-.11,1.69,.04,.65,.02,1.3,.15,1.95,.28,1.43,1.6,2.44,3.17,2.39,1.61-.04,2.84-1.07,3.05-2.53,.16-1.13,.16-2.26,.03-3.39Zm-1.44,3.24c-.12,.87-.83,1.47-1.71,1.48-.87,.01-1.58-.58-1.72-1.45-.19-1.13-.19-2.26,0-3.39,.14-.89,.83-1.44,1.74-1.43,.9,.01,1.56,.58,1.7,1.47,.03,.17,.06,.34,.07,.5,.01,.4,0,.79,0,1.19,.01,0,.02,0,.04,0-.03,.54-.04,1.08-.11,1.61Z" style="fill:#050808;"/><path d="M11.88,46.14c0-1.19,.02-2.38-.01-3.57-.01-.5,.16-.63,.63-.62,1.51,.02,3.02,.03,4.52,0,.47,0,.57,.18,.57,.6,0,.4-.05,.63-.55,.62-1.05-.03-2.11,0-3.16-.02-.46-.01-.64,.11-.65,.61-.04,1.84-.06,1.83,1.79,1.83,.43,0,.85,.02,1.28,0,.43-.02,.67,.03,.67,.57,0,.55-.25,.59-.68,.58-.82-.02-1.65,.01-2.48-.01-.45-.01-.57,.14-.59,.58-.06,1.91-.08,1.91,1.79,1.91,.68,0,1.37,.03,2.05,0,.54-.03,.49,.3,.51,.65,.02,.37-.05,.57-.5,.57-1.56-.02-3.13-.02-4.7,0-.42,0-.53-.15-.52-.54,.02-1.25,0-2.5,0-3.74Z" style="fill:#060808;"/><path d="M125.02,43.02c-.25,.22-.47,.39-.66,.6-.2,.22-.36,.28-.62,.04-.66-.61-1.44-.79-2.28-.39-.9,.42-.98,1.25-.97,2.1,0,.77-.02,1.53,.03,2.3,.07,1.02,.82,1.7,1.79,1.68,.99-.02,1.74-.79,1.8-1.8,.02-.42-.06-.65-.54-.58-.19,.03-.4,0-.6,0-.44,.03-.74,.02-.74-.59,0-.67,.4-.55,.78-.55,.14,0,.29-.02,.43,0,.67,.11,1.78-.35,1.94,.22,.29,1.07,.32,2.32-.51,3.32-.85,1.03-2.4,1.43-3.73,.98-1.28-.43-1.91-1.35-2.01-2.84-.06-.85-.02-1.7-.01-2.55,.02-1.26,.49-2.21,1.64-2.74,1.22-.56,2.43-.49,3.57,.23,.23,.15,.43,.35,.7,.57Z" style="fill:#050808;"/><path d="M108.87,46.16c0-1.22,.01-2.44,0-3.66,0-.39,.1-.55,.52-.55,1.54,.02,3.07,.03,4.61,0,.49-.01,.54,.19,.55,.6,.01,.47-.12,.64-.61,.62-1.05-.04-2.11,0-3.16-.02-.39,0-.53,.08-.55,.51-.09,1.94-.1,1.93,1.86,1.93,.37,0,.74,0,1.11,0,.36,0,.72-.1,.71,.52,0,.57-.22,.65-.71,.63-.74-.03-1.48,0-2.22,0-.14,0-.33-.06-.42,.01-.68,.56-.15,1.33-.31,2-.08,.35,.07,.5,.46,.49,1.05-.02,2.11,.02,3.16-.02,.49-.02,.7,.07,.69,.64,0,.52-.2,.59-.65,.58-1.48-.02-2.96-.03-4.44,0-.49,0-.63-.14-.61-.61,.03-1.22,.01-2.44,.01-3.66Z" style="fill:#050808;"/><path d="M155.53,41.96c-.94-.02-1.88,.03-2.82-.02-.6-.03-.7,.22-.69,.74,.03,1.16,.01,2.33,.01,3.49,0,1.25,.03,2.5-.01,3.74-.02,.63,.38,.5,.73,.5,.35,0,.76,.12,.72-.51-.05-.76,0-1.53-.02-2.3-.01-.36,.09-.51,.47-.49,.57,.03,1.14,.04,1.71,0,1.62-.11,2.65-1.16,2.63-2.65-.02-1.49-1.08-2.47-2.74-2.51Zm-.73,3.97q-1.34,0-1.34-1.42t1.38-1.36c1.39,0,2.04,.43,2.06,1.35,.01,.94-.7,1.42-2.1,1.43Z" style="fill:#050808;"/><path d="M74.56,45.15c0,.82,.02,1.65,0,2.47-.04,1.69-1.32,2.87-3.13,2.92-1.71,.05-3.11-1.01-3.21-2.62-.11-1.84-.05-3.68-.07-5.53,0-.66,.5-.38,.81-.42,.37-.05,.65,0,.64,.51-.03,1.62-.02,3.23,0,4.85,0,1.28,.67,2.01,1.79,2.01,1.1,0,1.79-.78,1.79-2.03,0-1.56,.04-3.12-.02-4.68-.02-.62,.25-.67,.75-.68,.5,0,.71,.09,.68,.65-.05,.85-.01,1.7-.01,2.55Z" style="fill:#050808;"/><path d="M149.88,45.22c0,.82,.02,1.65,0,2.47-.05,1.62-1.33,2.78-3.11,2.85-1.66,.06-3.11-.99-3.2-2.53-.12-1.86-.05-3.74-.07-5.61,0-.66,.49-.38,.8-.43,.44-.08,.59,.12,.58,.57-.02,1.62-.04,3.23,0,4.85,.04,1.5,1.09,2.25,2.45,1.82,.77-.24,1.17-.85,1.18-1.86,.01-1.59,.03-3.18-.01-4.76-.02-.57,.22-.64,.7-.64,.47,0,.74,.06,.7,.64-.05,.88-.01,1.76-.01,2.64Z" style="fill:#050808;"/><path d="M88.36,42.34c-.15-.39-.42-.38-.75-.38-.34,0-.59,.04-.73,.42-.26,.75-.56,1.48-.84,2.22-.73,1.92-1.46,3.83-2.24,5.88,.63-.21,1.45,.34,1.6-.41,.27-1.37,1.12-1.46,2.2-1.35,.37,.04,.75,.04,1.11,0,.49-.06,.7,.15,.86,.59,.44,1.24,.46,1.24,1.83,1.04-1.02-2.67-2.04-5.33-3.05-8Zm.17,5.25c-.7,0-1.4,0-2.2,0,.44-1.21,.85-2.32,1.32-3.61,.43,1.18,.79,2.2,1.17,3.22,.13,.34-.02,.39-.3,.38Z" style="fill:#040707;"/><path d="M40.95,42.49c-.16-.43-.38-.53-.8-.55-.46-.02-.64,.19-.78,.57-.55,1.48-1.13,2.95-1.69,4.42-.43,1.13-.85,2.26-1.32,3.49,.61-.16,1.41,.37,1.57-.37,.29-1.34,1.11-1.48,2.2-1.35,.37,.04,.74,.05,1.11,0,.53-.07,.72,.18,.88,.65,.41,1.23,.43,1.22,1.82,.95-1-2.61-2.02-5.21-2.99-7.82Zm.16,5.09c-.06,0-.11,0-.17,0q-2.14,.14-1.4-1.87c.19-.51,.39-1.02,.65-1.71,.43,1.17,.8,2.19,1.17,3.2,.08,.23,.03,.39-.26,.37Z" style="fill:#040707;"/><path d="M66.16,42.81c-.41,.61-.8,.96-1.57,.47-.58-.37-1.31-.33-1.98-.09-.55,.2-.82,.63-.82,1.17,0,.54,.37,.89,.88,1.01,.49,.12,1,.18,1.51,.26,1.49,.22,2.28,.98,2.32,2.25,.04,1.33-.78,2.26-2.24,2.54-1.3,.25-2.55,.12-3.66-.66-.19-.13-.64-.29-.22-.61,.27-.21,.39-.85,.99-.42,.83,.61,1.77,.72,2.75,.47,.62-.16,1-.54,1-1.2,0-.68-.44-1.02-1.06-1.14-.56-.11-1.13-.13-1.69-.24-1.2-.24-1.85-.95-1.92-2.05-.07-1.18,.52-2.16,1.64-2.49,1.46-.43,2.85-.29,4.07,.73Z" style="fill:#050808;"/><path d="M.08,42.01q1.4-.1,1.8,1.09c.47,1.39,.94,2.79,1.4,4.19,.06,.19,.07,.4,.31,.5,.58-1.74,1.16-3.48,1.74-5.22,.18-.52,.92-.83,1.41-.59,.33,.16,.12,.38,.05,.57-.85,2.46-1.72,4.9-2.54,7.37-.13,.4-.31,.51-.71,.53-.46,.02-.63-.17-.77-.58-.71-2.14-1.46-4.28-2.2-6.41-.16-.45-.31-.9-.49-1.44Z" style="fill:#050808;"/><path d="M101.39,46.15c0-.51-.03-1.02,0-1.53,.09-1.26,.77-2.12,1.94-2.53,1.23-.43,2.4-.28,3.45,.54,.23,.18,.3,.38,.03,.52-.31,.16-.42,.86-.99,.38-.53-.45-1.16-.59-1.83-.37-.61,.2-1.01,.59-1.12,1.25-.18,1.1-.19,2.2-.04,3.3,.21,1.48,1.62,2.12,2.84,1.22,.72-.53,.92,.05,1.18,.37,.39,.47-.22,.55-.43,.68-1.12,.71-2.31,.73-3.48,.14-1.14-.57-1.59-1.56-1.57-2.79,0-.4,0-.79,0-1.19,0,0,0,0,.01,0Z" style="fill:#040707;"/><path d="M8.18,46.19c0-1.22,.03-2.44-.01-3.66-.02-.64,.35-.58,.76-.58,.38,0,.71-.05,.7,.54-.03,2.47-.03,4.94,0,7.41,0,.61-.34,.52-.71,.52-.4,0-.78,.07-.75-.57,.05-1.22,.01-2.44,.01-3.66Z" style="fill:#090c0c;"/><path d="M41.01,6.6c.43,0,.86,.04,1.28,0,.79-.09,1,.34,1,.99,.01,.86-.33,1.53-1.11,1.95-.94,.5-1.86,.46-2.72-.16-.71-.51-.95-1.21-.82-2.08,.08-.52,.28-.75,.83-.71,.51,.04,1.02,0,1.54,0Z" style="fill:#12acab;"/><path d="M49.61,46.23c0,1.22-.04,2.43,.02,3.65,.03,.67-.37,.52-.75,.55-.43,.04-.65-.03-.65-.57,.03-2.43,.04-4.86,0-7.3,0-.6,.26-.61,.71-.62,.48,0,.71,.06,.69,.63-.05,1.21-.02,2.43-.02,3.65Z" style="fill:#040707;"/><path d="M128.03,19.25c.36-.05,.69,.06,1.03,.15,.05,.54-.38,.63-.74,.78-1.53,.66-3.02,1.43-4.55,2.09-1.22,.53-2.41,1.13-3.62,1.68-1.21,.55-2.44,1.05-3.61,1.7-.27,.15-.51,.39-.86,.24-.15-.27-.3-.55-.27-.87,1.21-.73,2.54-1.23,3.81-1.84,1.22-.58,2.44-1.18,3.69-1.71,1.72-.72,3.3-1.74,5.12-2.23Z" style="fill:#ecad1d;"/><path d="M115.36,24.69c-.21-.47-.19-.94,.02-1.4,.19,.52,.49,.27,.79,.12,3.42-1.67,6.91-3.19,10.33-4.86,.23,.13,.46,.25,.68,.38,.2,.52-.24,.62-.54,.77-2.29,1.13-4.62,2.17-6.93,3.25-1.16,.54-2.29,1.13-3.48,1.6-.28,.11-.53,.37-.87,.14Z" style="fill:#dca026;"/><path d="M115.68,25.89c2.51-1.31,5.11-2.45,7.69-3.64,1.73-.8,3.42-1.71,5.21-2.38,.22-.08,.37-.26,.47-.47,.96-.14,1.88-.4,2.71-.92-.15,.42-.49,.67-.84,.91-1.04,.59-2.08,1.15-3.19,1.58-1.03,.4-2.01,.92-3,1.39-2.71,1.29-5.44,2.53-8.16,3.8-.23,.11-.46,.23-.72,.05-.06-.11-.12-.22-.18-.33Z" style="fill:#f3b319;"/><path d="M126.49,18.55c-.8,.89-1.97,1.15-2.98,1.68-1.54,.8-3.16,1.48-4.74,2.2-.92,.42-1.87,.77-2.74,1.31-.5,.31-.71,.1-.66-.45-.02-.05,0-.1,.03-.14,1.08-.39,2.09-.93,3.14-1.39,2.02-.88,3.96-1.94,6.02-2.74,.51-.2,1.04-.44,1.44-.85,.16,.13,.33,.25,.49,.38Z" style="fill:#d29829;"/><path d="M129.06,21.27c-.3,.5-.77,.82-1.2,1.19-3.48,1.7-7.02,3.29-10.52,4.94-.13,.06-.27,.09-.4,.12-.28-.12-.48-.33-.6-.61,.35-.45,.89-.59,1.37-.81,3.42-1.58,6.84-3.16,10.25-4.77,.35-.17,.72-.39,1.11-.06Z" style="fill:#fdbd10;"/><path d="M116.94,27.52c.82-.78,1.92-1.05,2.89-1.53,2.27-1.14,4.6-2.15,6.91-3.22,.36-.17,.71-.36,1.13-.31-.25,.54-.86,.73-1.2,1.19-1.03,.83-2.31,1.18-3.47,1.76-1.49,.75-3.04,1.4-4.54,2.13-.38,.19-.76,.38-1.21,.34-.22-.05-.36-.21-.51-.37Z" style="fill:#fdc10e;"/><path d="M125.15,25.19c-.67,.67-1.32,1.35-2.01,2.01-1.33,1.28-2.88,1.72-4.67,1.18-.04-.43,.29-.59,.59-.73,1.71-.85,3.44-1.69,5.21-2.41,.27-.11,.57-.28,.88-.04Z" style="fill:#fecb09;"/><path d="M129.06,21.27c-.39-.04-.72,.11-1.06,.27-3.72,1.75-7.45,3.49-11.18,5.23-.15,.07-.32,.1-.49,.15-.09-.12-.18-.24-.27-.36,.95-.75,2.11-1.1,3.18-1.6,3.31-1.57,6.64-3.1,9.97-4.64,.27-.13,.56-.33,.87-.06-.24,.44-.67,.69-1.02,1.02Z" style="fill:#fab913;"/><path d="M130.08,20.25c-1.25,.21-2.28,.96-3.4,1.46-2.86,1.26-5.7,2.58-8.53,3.91-.69,.32-1.34,.73-2.08,.93-.07-.11-.14-.22-.2-.33,1.08-.48,2.16-.96,3.24-1.45,1.23-.55,2.46-1.1,3.68-1.67,1.36-.63,2.68-1.34,4.06-1.92,1.37-.58,2.63-1.43,4.1-1.79-.22,.35-.5,.63-.85,.85Z" style="fill:#f6b615;"/><path d="M125.15,25.19c-2.23,.68-4.25,1.82-6.33,2.82-.14,.07-.23,.24-.35,.36-.38-.09-.73-.23-1.03-.49,2.91-1.36,5.83-2.72,8.74-4.08,.15-.07,.32-.11,.48-.16,0,.07,.01,.15,.02,.22-.51,.44-1.02,.88-1.53,1.32Z" style="fill:#fec60c;"/><path d="M115.36,24.69c1.63-.73,3.26-1.44,4.88-2.18,2.08-.96,4.16-1.95,6.23-2.93,.29-.14,.68-.21,.7-.65,.28,.11,.57,.22,.85,.32-.29,.53-.9,.41-1.33,.65-2.18,1.19-4.47,2.14-6.71,3.19-1.49,.7-2.91,1.62-4.57,1.93l-.05-.33Z" style="fill:#e4a623;"/></g></g></svg>