<?xml version="1.0" encoding="UTF-8"?><svg id="Layer_2" xmlns="http://www.w3.org/2000/svg" viewBox="0 0 147.22 51.81"><g id="Layer_1-2"><g><g><path d="M117.98,46.25h1.28l-1.46,5.46h-1.28l1.46-5.46Zm.45-1.07c-.1-.14-.13-.31-.07-.51,.05-.19,.17-.36,.34-.5,.18-.14,.37-.21,.57-.21s.35,.07,.44,.21c.1,.14,.12,.31,.07,.5-.05,.2-.17,.37-.34,.51-.17,.14-.36,.21-.56,.21s-.35-.07-.45-.21Z" style="fill:#ed7703;"/><path d="M129.33,46.25l-1.46,5.46h-1.28l.21-.79c-.56,.59-1.23,.89-2.01,.89-.53,0-.97-.12-1.32-.36s-.58-.58-.69-1c-.12-.43-.1-.91,.04-1.45h0c.14-.54,.39-1.03,.73-1.46,.34-.43,.76-.77,1.24-1.02,.48-.25,.99-.37,1.52-.37,.79,0,1.3,.3,1.53,.89l.21-.78h1.28Zm-2.1,2.72c.08-.31,.09-.58,.02-.83-.07-.25-.21-.44-.41-.57-.2-.14-.45-.21-.73-.21s-.56,.07-.83,.21-.51,.33-.71,.57c-.2,.25-.35,.52-.43,.83v.02c-.09,.31-.09,.58-.02,.83,.08,.24,.21,.43,.42,.57,.2,.14,.44,.21,.72,.21s.57-.07,.84-.21,.51-.33,.71-.57c.2-.24,.34-.52,.42-.83v-.02Z" style="fill:#ed7703;"/><path d="M133.73,46.25h1.28l-.29,1.1c.29-.38,.63-.67,1.01-.87,.38-.21,.77-.3,1.18-.3l-.33,1.22h-.15c-.3,0-.6,.07-.9,.21-.3,.14-.57,.33-.79,.57-.22,.24-.37,.49-.45,.76l-.74,2.76h-1.28l1.46-5.46Z" style="fill:#ed7703;"/><path d="M147.22,44.11l-2.04,7.6h-1.28l.24-.89c-.27,.31-.58,.56-.93,.73s-.74,.26-1.17,.26c-.53,0-.97-.12-1.32-.37-.35-.25-.58-.58-.69-1.01-.11-.43-.1-.91,.04-1.45v-.02c.15-.53,.39-1.01,.74-1.44,.34-.43,.75-.76,1.23-1.01,.48-.25,.99-.37,1.52-.37,.42,0,.77,.09,1.03,.26,.26,.17,.44,.42,.54,.73l.81-3.02h1.28Zm-2.74,4.86c.08-.31,.09-.58,.02-.83-.07-.25-.21-.44-.41-.57s-.44-.21-.72-.21-.58,.07-.85,.21-.51,.33-.71,.57c-.2,.25-.35,.52-.43,.83v.02c-.09,.31-.09,.58-.02,.83,.07,.24,.21,.43,.41,.57,.2,.14,.44,.21,.73,.21s.56-.07,.83-.21c.28-.14,.52-.33,.72-.57,.21-.24,.35-.52,.43-.83v-.02Z" style="fill:#ed7703;"/></g><path d="M99.46,.45c2.85,.63,5.66,1.34,8.22,3.08-.58,.56-1.11,.12-1.46,.01-7.58-2.33-15.13-1.65-22.62,.28-14.99,3.86-27.57,11.94-38.86,22.22-2.96,2.69-2.83,2.64,0,5.44,2.88,2.85,5.54,5.91,8.21,8.78-1.33,0-3.17,.68-4.83-1.04-2.31-2.39-4.82-4.58-7.07-7.02-1.14-1.24-1.78-.98-2.67,.12-.9,1.1-1.91,2.1-3.05,3.02,.25-1.65,1.46-2.71,2.45-3.84,.89-1.01,.94-1.56-.08-2.53-2.73-2.62-5.32-5.38-8.06-8.19,2.2-.1,4.39-.73,6.09,1.65,1.07,1.49,2.68,2.58,3.88,3.99,1.04,1.21,1.64,1.12,2.7-.04,6.42-6.99,13.76-12.89,22.02-17.58C73.02,3.88,82.15,.3,92.31,0h.04c.23,0,1.32-.02,2.77,.05,.53,.07,1.07,.09,1.61,.1l2.73,.3Z" style="fill:#00437a;"/><path d="M81.44,34.52c-.96-.1-2.5-.95-2.98,.9-.42,1.6-1.62,2.28-3.11,2.32-3.53,.08-7.07,.19-10.59-.04-3.25-.21-4.7-2.08-4.75-5.27-.02-1.03,.29-1.38,1.35-1.36,3.2,.06,6.4,.02,9.6,.02s6.4,.02,9.6-.02c.51,0,1.18,.34,1.47-.55,1.32-4.05-1.55-9.02-5.88-9.76-4.62-.79-9.3-.77-13.93-.04-3.38,.53-5.34,2.89-5.49,6.35-.09,2.25-.1,4.51,0,6.76,.14,3.6,1.96,5.99,5.54,6.52,5.15,.75,10.36,.74,15.5-.24,1.99-.38,3.58-1.53,4.1-3.62,.16-.65,.7-1.83-.42-1.96Zm-21.2-7.58c.33-2,1.24-3.34,3.37-3.56,3.78-.39,7.57-.52,11.33,.1,1.89,.31,3.33,1.27,3.73,3.34,.22,1.12-.14,1.53-1.32,1.51-2.73-.06-5.46-.02-8.19-.02s-5.19-.04-7.79,.02c-1.12,.03-1.3-.33-1.13-1.38Z" style="fill:#00437a;"/><path d="M141.6,20.8c-5.02-.81-10.09-.84-15.11-.06-2.55,.4-3.71,1.85-3.96,4.29-.07,.67-.25,1.53,.79,1.36,.89-.14,2.34,.91,2.62-.74,.26-1.57,1.19-2.2,2.54-2.31,3.98-.32,7.98-.47,11.94,.16,1.64,.26,2.58,1.34,2.68,3,.07,1.16,.01,2.32,.01,3.74-1.08-.73-1.89-1.47-2.97-1.56-4.85-.38-9.72-.49-14.55,.06-2.75,.32-3.89,1.88-3.93,4.62-.01,.73-.02,1.46,0,2.18,.12,3.19,1.73,4.9,4.95,5.05,3.05,.14,6.13,.26,9.18,.1,2.32-.12,4.87,.48,6.87-1.37,.13-.12,.35-.16,.45,.09,.73,1.83,2.17,.68,3.32,.77,0-4.79,0-9.59,0-14.38-.49-2.91-1.86-4.54-4.84-5.02Zm-1.22,16.81c-2.18,.39-4.38,.18-6.58,.18-1.93,0-3.87,.1-5.79-.02-2.22-.15-2.88-.98-2.89-3.18,0-2.25,.56-3.03,2.84-3.2,4.05-.32,8.11-.33,12.16,.06,1.74,.16,2.96,.93,3.03,2.99,.08,2.04-.99,2.86-2.78,3.18Z" style="fill:#00437a;"/><path d="M24.93,27.05c-.05-3.88-1.8-5.82-5.67-6.39-4.11-.61-8.23-.42-12.36-.24-1.11,.04-2.24,.35-3.3,.72-1.85,.65-2.63,2.11-2.66,4.01-.01,.72,.05,1.47,1.01,1.25,.81-.18,2.17,.86,2.36-.84,.18-1.6,1.31-2.15,2.61-2.24,3.91-.28,7.84-.45,11.74,.16,1.73,.26,2.71,1.36,2.82,3.1,.08,1.2,.01,2.42,.01,3.99-1.14-1.3-2.23-1.88-3.54-1.96-4.59-.26-9.18-.37-13.76,.08-2.51,.24-3.94,1.62-4.15,3.83-.12,1.3-.08,2.65,.12,3.95,.41,2.65,1.85,3.92,4.56,4.12,4.39,.33,8.78,.19,13.16-.03,1.29-.06,2.5-.39,3.65-1.98-.26,2.59,1.34,1.61,2.27,1.75,1.28,.19,1.11-.78,1.11-1.57,0-3.91,.04-7.81,0-11.71Zm-6.18,10.54c-2.18,.4-4.38,.18-6.58,.2-1.86,0-3.73,.08-5.59-.02-2.3-.13-3.06-.94-3.11-3.01-.06-2.36,.53-3.19,2.89-3.38,4.05-.33,8.11-.34,12.16,.06,1.74,.17,2.98,.95,3.05,2.99,.08,2.04-1.04,2.84-2.82,3.16Z" style="fill:#00437a;"/><path d="M90.81,22.8c1.67-1.95,3.8-2.49,6.12-2.5,2.06-.01,4.12-.1,6.17,.29,3.98,.75,6.29,4.44,5.19,8.33-.33,1.17-1.29,.59-1.99,.69-.6,.09-1.07,.04-1.23-.84-.94-5.47-1.17-5.63-6.69-5.63-.87,0-1.73-.03-2.6,0-3.04,.14-4.79,1.89-4.82,4.91-.04,3.57-.07,7.15,.02,10.72,.04,1.41-.55,1.63-1.76,1.61-1.15-.01-1.79-.1-1.77-1.56,.1-5.36,.02-10.72,.05-16.08,0-.91-.56-2.1,1.35-2.12,1.68-.02,2.09,.59,1.94,2.18Z" style="fill:#01437a;"/><path d="M112.56,30.62c0-2.84,.11-5.69-.04-8.53-.09-1.67,.89-1.39,1.88-1.43,1.02-.04,1.71-.04,1.68,1.39-.09,5.62-.08,11.24,0,16.86,.02,1.33-.51,1.55-1.64,1.48-1.02-.05-1.97,.16-1.9-1.45,.12-2.77,.03-5.55,.03-8.33Z" style="fill:#03457b;"/><polygon points="110.45 .38 111.91 6.37 105.45 7.22 111.75 7.83 110.83 14.14 113.52 8.52 118.83 11.37 114.37 6.83 118.75 2.91 113.29 5.76 110.45 .38" style="fill:#ed7c0d;"/><path d="M38.24,30.97s-4.56,4.89-5.71,9.07c0,0,5.43-8.07,6.97-8.64s-1.26-.44-1.26-.44Z" style="fill:#00437a;"/><path d="M96.73,.15c.79,.06,1.63,.15,2.47,.28,.09,.01,.18,.02,.26,.02l-2.73-.3Z" style="fill:#00437a;"/><path d="M105.55,3.36s2.07,.64,2.74,.94c0,0-.26-.57-.95-.99s-1.79,.05-1.79,.05Z" style="fill:#00437a;"/></g></g></svg>