<?xml version="1.0" encoding="UTF-8"?><svg id="Layer_2" xmlns="http://www.w3.org/2000/svg" viewBox="0 0 193.02 26.44"><g id="Layer_1-2"><g><path d="M74.92,12.45V2.03c6.32,0,8.62-.32,9.7,7.67h.68V.81h-17.15v1.22h2.98V24.95h-3.29v1.22h17.69v-9.39h-.9c-.86,7.09-2.62,8.17-7.49,8.17h-2.26V13.8h1.31c2.17,.05,3.43,1.35,3.88,5.28h.81V7.58s-.77,0-.77,0c0,.05-.14,4.96-3.97,4.87,0,0-1.22,0-1.22,0Z" style="fill:#c5281c;"/><path d="M67.92,12.9h-9.7v1.13h3.29v8.26c-.54,2.08-3.52,2.98-4.42,2.98-6.18,0-5.73-9.39-5.73-11.87,0-2.3-.23-11.91,5.73-11.91,4.2,0,6.41,4.33,7.31,8.21h.68c0-1.62,.05-9.25,0-9.21,0-.05-2.89,2.17-2.89,2.12,.05,0-1.31-2.03-5.1-2.03-7.31,0-9.97,7.54-9.93,12.82,.05,4.83,2.17,13.04,9.93,13.04,2.44,0,4.15-1.31,5.1-2.75,0-.05,3.07,2.53,3.11,2.53V14.03h2.62v-1.13Z" style="fill:#c5281c;"/><path d="M152.45,17.01l3.52-10.97,3.75,10.97h-7.27Zm-13.67-4.38h-3.97V2.03h5.05c2.98,.45,3.11,4.02,3.11,5.19,0,2.71-1.13,5.42-4.2,5.42m42.24,4.15c-.86,7.09-2.62,8.17-7.49,8.17h-.27V2.03h3.07V.76h-10.15V1.98h3.11V24.91h-2.44L157.82,.04h-1.31s-7.49,22.57-7.54,22.61c0-.05-.59,1.94-1.81,2.17-1.13,.05-1.04-.54-1.04-.77v-4.33c0-1.13-.09-3.75-1.22-4.92-1.26-1.35-3.48-1.44-3.43-1.49,0,0,5.55-1.17,5.55-6.68,0-3.84-2.57-5.73-6.86-5.91h-12.19V1.94h3.11V24.86h-3.11v1.31h10.02v-1.22h-3.11V13.94h4.15c7.22,.63-1.26,12.28,8.21,12.23h5.96v-1.22c-.32,0-2.53,.05-2.66-1.53-.09-1.13,1.44-5.24,1.44-5.24h8.12s2.53,6.77,2.57,6.77h-2.93v1.22h22.11v-9.39h-.86Z" style="fill:#c5281c;"/><path d="M115.85,2.03c6.32,0,8.62-.32,9.7,7.72h.68V.81h-25v1.22h.63c.9,0,2.98,.09,3.11,1.99h0v14.62L93.28,.81h-6.36v1.22h1.08c1.26,0,3.02,.05,3.11,1.99V22.74c0,1.85-2.66,2.53-3.75,2.53h0v.9h8.62v-.9c-1.08,0-3.75-.68-3.75-2.53l.05-16.52c4.51,6.86,13.27,19.95,13.36,19.95h.45V3.97c.14-1.9,2.21-1.99,3.11-1.99h2.89V24.91h-3.34v1.26h17.69v-9.39h-.9c-.86,7.09-2.62,8.17-7.49,8.17h-2.26V13.8h1.31c2.17,.05,3.43,1.35,3.88,5.28h.81V7.58s-.77,0-.77,0c0,.05-.18,4.96-3.97,4.87h-1.22V2.03h0Z" style="fill:#c5281c;"/><polygon points="193.02 2.03 193.02 .76 183.05 .76 183.05 2.03 186.16 2.03 186.16 24.91 183.05 24.91 183.05 26.17 193.02 26.17 193.02 24.91 189.86 24.91 189.86 2.03 193.02 2.03" style="fill:#c5281c;"/><polygon points="5.51 16.69 8.3 17.46 8.3 16.6 5.51 15.84 5.51 16.69" style="fill:#c5281c;"/><polygon points="1.76 16.6 1.76 17.46 4.56 16.69 4.56 15.84 1.76 16.6" style="fill:#c5281c;"/><polygon points="5.51 18.63 8.3 19.36 8.3 18.54 5.51 17.78 5.51 18.63" style="fill:#c5281c;"/><polygon points="1.76 18.54 1.76 19.36 4.56 18.63 4.56 17.78 1.76 18.54" style="fill:#c5281c;"/><polygon points="5.51 20.53 8.3 21.3 8.3 20.44 5.51 19.67 5.51 20.53" style="fill:#c5281c;"/><polygon points="1.76 20.44 1.76 21.3 4.56 20.53 4.56 19.67 1.76 20.44" style="fill:#c5281c;"/><path d="M32.72,23.91c-.41-.54-.54-1.17-.36-1.58,.09-.23,.27-.41,.54-.45l2.35-.54-.23-2.17v-.05c-.09-.5-.32-1.13-1.31-1.22-4.29-.36-5.24-1.04-6.27-1.71h0v-.05h0l-.05-.05c-1.13-.77-2.26-.72-2.26-.72-1.22,0-2.71,.5-2.84,.54-.36,.09-.72,.23-1.04,.32-1.35,.45-2.48,.81-4.42,.77h-.32l-.09,.32c-.09,.27-.63,2.53-.09,3.93-.54,.41-.54,.86-.54,.9,0,.45-.09,.59-.14,.68-.23,.27-.95,.27-1.62,.27h-.18l-.14,.18c-.41,.59-1.26,.72-1.81,.54-.23-.77-.27-1.35,0-1.71,.27-.41,.86-.45,1.08-.45h.09c.54,0,.99-.45,.99-1.04v-3.93c.18-.27,.32-.63,.45-.99,.9-.14,1.62-.95,1.62-1.9,0-.41-.14-.77-.32-1.08,.86-.41,1.62-1.31,1.62-2.44s-.59-1.67-1.08-1.99c.14-.45,.41-1.22,.59-2.03l.72-2.75c.36-1.13,1.22-1.81,2.26-1.81h13.22c-.59,.9-1.4,1.31-2.53,1.31h-7.99s-.18,.36-.18,.41-.14,.41-.18,.41h7.18c-.59,.99-1.4,1.44-2.62,1.44h-5.19s-.18,.36-.18,.41-.14,.41-.18,.41h4.65c-.59,.95-1.4,1.4-2.62,1.4h-2.84s-.18,.36-.18,.41-.14,.41-.18,.41h2.93s.14,.14,.14,.59c0,.63-.5,1.13-1.13,1.13-.27,0-.5-.09-1.04-.32h-.05l-.59,.54,.36,.18c.59,.27,.9,.41,1.35,.41,.54,0,1.04-.23,1.35-.59,.5,.05,1.31,.09,2.08,.18,.95,.09,1.94,.18,2.39,.18,.23,0,.45,.05,.63,.05,.36,0,.72,.05,1.08,.05,1.81,3.07,2.71,3.43,6.23,3.88,.23,.45,.45,.9,.63,1.35v6.05c0,.32,0,.41-.05,.45-.14,.18-.54,.36-.86,.5l-2.89,.99h0Zm-.95,.05h-5.87l2.48-2.75c.5-.54,.63-1.13,.45-1.76-.14-.41-.5-1.17-.86-1.9,.99,.5,2.44,.95,5.6,1.22,.41,.05,.5,.18,.59,.54l.14,1.4-1.62,.36c-.5,.09-.9,.45-1.13,.95-.18,.59-.09,1.26,.23,1.94m-10.52,0c-.18-.68-.09-1.17,.23-1.53,.27-.36,.72-.45,1.04-.41l1.67,.32h.27l1.17-1.31h0c.36-.41,.72-1.08,.18-1.9l-1.62-2.8c.27-.05,.59-.09,.86-.09,0,0,.81,0,1.71,.54,.14,.27,.27,.59,.45,.99,.32,.72,.77,1.58,.86,1.94,.09,.32,0,.63-.27,.95l-2.98,3.29h-3.57Zm-.41-2.08c-.32,.36-.63,1.04-.41,2.08h-5.73l.05-.05c.68-.05,1.17-.18,1.49-.5,.36-.36,.36-.9,.36-1.26,0-.05,.05-.18,.36-.32l.41-.18-.27-.45c-.5-.77-.27-2.44-.09-3.34,1.9,0,3.11-.41,4.38-.81,.32-.09,.68-.23,1.04-.32h0s.41-.14,.9-.27l1.81,3.07h0c.23,.32,.18,.5-.14,.9l-.9,1.04-1.44-.27h0c-.68-.09-1.35,.14-1.81,.68m-9.66-.23c-.36,.54-.41,1.31-.14,2.3h-1.04v-7.49c.36-.05,.77-.18,1.13-.36,0,.36-.05,.68-.14,1.04,0,.09-.05,.18-.05,.27l-.09,.5h.45c.81,0,1.4-.14,1.9-.41v3.2c0,.09-.09,.18-.18,.18h-.14c-.72-.05-1.35,.27-1.71,.77m-1.94,1.58l-4.24-1.13-4.24,1.13v-7.9l4.24-1.13,4.24,1.13v7.9Zm-8.03,.72l3.84-1.04,3.84,1.04H1.22Zm1.58-11.51c.18-.27,.59-.54,1.13-.45l.32,.05,.14-.32,.14-.27c.14-.14,.27-.18,.5-.18,.54,0,1.22,.41,1.81,1.04,.41,.45,.72,.99,.95,1.49l.5-.72c-.18-.32-.32-.54-.54-.86l1.22-1.99c.18,.05,.36,.09,.5,.09h.32c1.53-.05,3.11-.95,3.16-2.57v-.05c0-.45-.09-.86-.18-1.22-.05-.23-.09-.45-.09-.54,0-.23,.27-.45,.63-.45h.45l-.18-1.4c.77-.59,1.26-1.58,1.17-2.48,.86,.63,1.44,1.81,1.58,3.02,.05,.36-.05,.86-.14,1.35l-.05,.23h0c-.18,.81-.45,1.67-.63,2.08l-.14,.32,.32,.18c.63,.36,.99,.63,.99,1.49,0,.95-.81,1.71-1.62,1.85l-.95,.18,.81,.54c.32,.23,.5,.54,.5,.9,0,.63-.5,1.13-1.13,1.13h-.32l-.09,.27c-.36,1.17-.72,1.71-1.94,1.85,.05-.36,.09-.72,.09-1.17v-.5l-.05-.95-.68,.68c-.27,.27-.72,.5-1.22,.59v-.95l-5.01-1.35-1.81,.5c-.5-.45-.54-1.22-.45-1.4m5.46-3.34c0-.09,.05-.18,.23-.14h.68l.36-.05c.86-.09,1.58-.68,1.58-1.44,0-.27-.14-.63-.36-.86-.18-.23-.45-.36-.72-.36-.36,0-.72,.27-1.13,.54-.32,.23-.54,.36-.72,.36-.14,0-.27-.09-.27-.18v-.05l.5-.68-.41-.23c-.09-.05-.27-.18-.27-.32,0-.05,0-.09,.09-.18,.23-.27,.45-.59,.68-.99,.09-.09,.18-.14,.27-.14,.18,0,.36,.18,.36,.41,0,.14,.14,.27,.32,.27s.27-.14,.36-.27c0,0,.45-.41,.23-.63-.18-.14-1.17,.27-.99-.59l.09-.23c.14-.18,.63-.59,1.71-.59,.18,0,.41,0,.63,.05h.14l2.26-1.44c.05,.09,.05,.14,.05,.14h0c.14,.72-.32,1.58-.99,1.99l-.23,.14,.18,1.04c-.59,.18-.99,.63-.99,1.17,0,.18,.05,.41,.09,.72,.05,.32,.14,.72,.14,1.08,0,.68-.77,1.67-2.35,1.81-.59,.05-1.22-.09-1.4-.23-.05,.05-.09-.05-.09-.14m1.85-7.22c.14-.18,.36-.41,.63-.59s.54-.32,.81-.41c.5-.14,1.04-.14,1.62,0l-1.71,1.08c-.18,0-.41-.05-.59-.05-.32,0-.59,.05-.86,.09,0-.05,.05-.09,.09-.14m23.96-.27h6.05c-.59,.9-1.4,1.31-2.53,1.31h-4.51c.36-.36,.72-.77,.99-1.31m-.27,3.57h-4.51c.45-.36,.81-.86,1.08-1.44h6.05c-.59,.99-1.4,1.44-2.62,1.44m-3.48,2.26h-4.51c.41-.36,.77-.81,1.04-1.4h6.05c-.54,.95-1.4,1.4-2.57,1.4m1.04,3.34c1.4,.23,2.53,.9,3.38,1.94,.23,.27,.41,.54,.59,.81-2.53-.32-3.34-.68-4.69-2.89,.27,.05,.5,.09,.72,.14m9.34,9.97c.09,.14,.18,.27,.23,.41,.09,.18,.18,.36,.32,.54-.77,0-1.31-.41-1.85-1.26,.5-.14,1.08-.05,1.31,.32m-5.78,3.2l.99-.41h0c1.26-.54,1.44-.86,1.4-1.76v-4.02c1.04,2.8,1.94,4.78,3.93,4.78,.27,0,.54-.05,.81-.09l.68-.14-.45-.54c-.32-.36-.5-.68-.68-.99-.09-.14-.14-.27-.23-.45-.45-.72-1.49-.99-2.35-.59-.41-.81-.81-1.9-1.26-3.2l-.09-.23c-.36-.86-.77-1.81-1.22-2.62-.36-.59-.72-1.08-1.08-1.53-.99-1.22-2.3-1.94-3.88-2.21-1.08-.18-1.9-.23-2.89-.27-.23,0-.41,0-.63-.05-.45-.05-1.44-.09-2.35-.18-.63-.05-1.22-.09-1.71-.14,.05-.14,.05-.32,.05-.5,0-.23-.05-.41-.05-.59h6.41c1.62,0,2.8-.77,3.52-2.21,1.62,0,2.8-.77,3.52-2.3h.27c1.67,0,2.89-.81,3.57-2.35l.27-.59H19.95c-1.4,0-2.57,.95-3.02,2.39l-.05,.23c-.36-1.13-1.08-2.08-1.94-2.62C13.76,.09,12.41-.19,11.33,.13c-.36,.09-.72,.27-.99,.45-.23,.18-.59,.45-.86,.77-.27,.36-.54,.86-.77,1.26h0c-.14,.09-.23,.23-.27,.32l-.27,.5v.05c-.32,.72-.68,1.22-.99,1.58-.27,.32-.27,.63-.27,.86,.05,.23,.18,.45,.32,.59l-.05,.05c-.09,.14-.14,.32-.14,.5,0,.54,.45,.99,1.04,.99,.41,0,.77-.18,1.17-.45,.14-.09,.59-.41,.72-.41,.09,0,.14,0,.18,.05,.14,.05,.18,.18,.18,.32,0,.41-.41,.77-1.04,.81l-.77,.09c-.86,.05-.99,.5-1.04,.59-.09,.32,.09,.59,.32,.77l.05,.05,.14,.14-.99,1.62c-.68-.63-1.44-1.04-2.12-1.08-.45,0-.81,.14-1.08,.41-.09,.09-.18,.18-.23,.27-.72,0-1.31,.41-1.62,.86-.32,.5-.18,1.4,.23,2.03l-2.17,.63v11.46H42.87v-2.21h-7.94Z" style="fill:#c5281c;"/></g></g></svg>