<?xml version="1.0" encoding="UTF-8"?><svg id="Layer_2" xmlns="http://www.w3.org/2000/svg" viewBox="0 0 197.09 52.09"><g id="Layer_1-2"><g id="g10"><g id="g12"><path id="path14" d="M196.58,21.95h-12.49v7.7h10.71v5.51h-10.71v10.35h12.75v6.07h-19.89V15.88h20.14l-.51,6.07" style="fill:#108565;"/><path id="path16" d="M168.03,51.57h-8.39s-4.98-24.4-5.13-25.42c-.15,1.02-4.86,25.42-4.86,25.42h-8.39l-5.91-35.69h7.38s2.49,22.22,2.75,25.49c.1-.87,4.8-25.49,4.8-25.49h8.74s4.31,20.09,4.97,25.49c.46-5.51,2.57-25.49,2.57-25.49h7.38l-5.91,35.69" style="fill:#108565;"/><path id="path18" d="M129.27,51.58l-1.48-6.94h-9.99l-1.48,6.94h-7.55l9.59-35.7h8.87l9.59,35.7h-7.55m-4.54-21.32c-.87-4.03-1.84-9.28-1.94-9.79-.46,2.29-1.07,5.76-1.94,9.79l-1.89,8.87h7.65l-1.89-8.87" style="fill:#108565;"/><path id="path20" d="M98.76,51.58l-2.19-8.11c-.87-3.26-2.19-5.56-3.11-6.53l-2.91,.26v14.38h-7.14V15.88h9.79c7.65,0,13.16,1.78,13.16,10.1,0,5.66-2.55,8.31-6.48,9.69,1.38,.87,2.65,3.16,3.52,5.66l3.47,10.25h-8.11m-5.92-30.04h-2.29v10.66c4.84-.46,8.67-.82,8.67-6.07,0-3.42-1.84-4.59-6.37-4.59" style="fill:#108565;"/><path id="path22" d="M78.95,50.25c-2.7,.77-7.65,1.84-11.88,1.84-6.58,0-13.62-1.84-13.62-17.85s8.52-18.87,15.6-18.87c3.82,0,6.73,1.02,8.36,1.84v5.71c-1.73-.61-5.35-1.78-8.36-1.78-3.62,0-8.47,1.94-8.47,12.6,0,11.27,3.77,12.65,6.37,12.65,1.48,0,3.93-.31,4.84-.51v-10.76h-4.84l-.51-5.46h12.49v20.6" style="fill:#108565;"/><path id="path24" d="M32.64,36.72l.19-.21c.98-1.19,1.4-1.54,2.31-3.15,.43-.74,.84-3.02,.81-4.36V15.88s10.44,0,10.44,0v12.54c-.12,2.81,0,4.71-.92,7.72-.88,2.91-2.33,5.21-4.12,6.89l-8.73,8.55-7.4-7.35,6.35-6.32,1.07-1.19" style="fill:#108565;"/><path id="path26" d="M13.76,36.72l-.19-.21c-.98-1.19-1.4-1.54-2.31-3.15-.43-.74-.84-3.02-.81-4.36V15.88s-10.44,0-10.44,0v12.54c.12,2.81,0,4.71,.92,7.72,.88,2.91,2.33,5.21,4.12,6.89l8.73,8.55,7.4-7.35-6.35-6.32-1.07-1.19" style="fill:#108565;"/><path id="path28" d="M20.21,20.03l.8-.66h-1.34l.53,.66Zm9.54,6.49v-6.72c.16-.52-.39-.4-.62-.33-.86,.32-1.49,1.02-1.6,1.94v4.92l-.06,.58c-.14,.32-.37,.64-.72,.75-.28,.05-.61,.03-.86-.08l-1.66-1.63-.3-.44c-.17-.5-.17-.99,.11-1.44,.79-1.06,1.91-1.57,2.41-2.74,.39-1.1-.13-2.21-.94-2.93h.89c-.24-.67-1.03-.61-1.58-.61-.04-.04-.07-.07-.11-.11-.44-.53-.62-1.04-.96-.83-.24,.24,.17,.48,.49,.94h-.46s-.07-.04-.12-.11c-.47-.58-.59-1.07-.96-.81-.19,.23,.11,.47,.46,.92-.23,0-.6,.1-.78,.22-.9,0-1.91,0-2.66,0,.5,1.31,2.24,.79,2.77,.94-.25,.32-.58,.61-.86,.96,.17,.06,.28,.05,.44,.05,.46,.03,.84-.17,1.11-.52,.31,0,.69,0,.98,0-1.14,1.18-2.54,2.58-3.69,3.69l-2.24-2.17v-1.08c-.04-.31-.46-.37-.72-.28-.22,.1-.28,.44-.28,.66-.02,0-.35-.34-.6-.28-.16,.05-.33,.1-.41,.28-.09,.28,.12,.54,.27,.74-.02,0-.22,.06-.43,.09-.27,.09-.48,.33-.38,.61,.11,.5,.88,.36,1.5,.36-.01,.66-.22,1.2,.37,1.47,.28,.1,.53-.1,.69-.3,.55,.53,1.14,1.05,1.58,1.63-.71,.75-1.59,1.59-2.29,2.28-.39-.35-.7-.76-1-.6-.15,.02-.3,.16-.36,.3-.1,.28,.23,.74,.23,.76l-.34,.02c-.17,.04-.28,.18-.36,.33-.03,.2,.02,.45,.25,.55,.13,.08,.48,.08,.47,.1,.01,0-.21,.21-.25,.34-.05,.19-.04,.42,.11,.55,.6,.41,.92-.09,1.45-.65,.43,.39,.62,.82,1.15,.76,.28-.08,.46-.29,.36-.61-.1-.28-.2-.28-.61-.75l1.82-1.71c.73,.76,.87,.88,1.53,1.6-.56,.6-1.32,1.03-1.55,1.8-.04,1.19-.01,1.96-.05,3.01l-.75,.74c-.45-.36-.46-.78-.97-.64-.2,.03-.29,.2-.35,.34-.07,.26,.13,.47,.28,.67-.29,0-.09-.09-.47-.01-.29,.14-.39,.27-.38,.53,.08,.38,.24,.61,.83,.55-.17,.23-.31,.41-.28,.67,.05,.22,.15,.29,.3,.33,.53,.14,.83-.41,1.22-.77,.39,.37,.59,.79,1.11,.83,.19,.02,.27-.07,.39-.14,.34-.43-.23-.85-.51-1.25,.44-.62,1.22-1.29,1.78-1.92l.03-.17c0-.65,0-.87,0-1.41,0-.75,.09-.88,.67-1.26l.37-.17c.12,.55-.05,1.09,.17,1.63,.5,1.15,2.27,1.01,3.13,1v1.22l-.43-.37s-.41-.4-.71-.34c-.16,.03-.33,.15-.39,.3-.11,.28,.06,.5,.25,.69-.36,0-.63,.02-.76,.28-.09,.2-.15,.37,.03,.6,.36,.33,.39,.18,.7,.23-.13,.17-.25,.36-.28,.58,.02,.17,.17,.35,.33,.42,.61,.1,.74-.31,1.19-.78,.68,.6,.68,.84,1.24,.8,.15-.03,.26-.14,.33-.28,.22-.49-.26-.69-.55-1.08,.22-.3,.67-.54,.69-.8v-3.14c-.89-.04-1.25,.08-1.6-.15-.86-.52-.53-1.66-.53-2.46l.11-.03c.56,.33,1.43,.23,1.99-.03,.62-.35,1.11-1,1.2-1.69h0Zm-.74,10.47l-5.78,5.76-5.78-5.76h0l-2.38-2.37c-.37-.56-1.12-.94-1.64-2.66-.29-1.17-.22-2.82-.22-2.82V15.88h20.06v13.27c.03,1,0,2.06-.34,2.93-.66,1.58-1.16,2.11-1.55,2.55l-2.38,2.37" style="fill:#108565;"/><path id="path30" d="M22.99,18.1c-.02,.07-.15-.03-.18,.13,.08,0,.27,.14,.33,0,.02-.07-.09-.15-.16-.14" style="fill:#108565;"/><path id="path32" d="M22.97,0h-.37V.53h-.55v.37h.91V0" style="fill:#108565;"/><path id="path34" d="M23.52,0h.37V.53h.55v.37h-.91V0" style="fill:#108565;"/><path id="path36" d="M30.49,13.53h-2.07l2.07-5.67v5.67Zm-4.21-6.49h4.09l-2.18,5.98-1.92-5.98Zm-2.36,6.49l2.15-5.9,1.9,5.9h-4.05Zm-.01-6.49h1.97l-1.97,5.36V7.04Zm2.18-2.47c.36,0,.66,.44,.66,.99s-.3,.99-.66,.99-.66-.44-.66-.99,.29-.99,.66-.99Zm-3.48,8.04l-2.04-5.57h2.04v5.57Zm-4.13,.92l1.9-5.9,2.15,5.9h-4.05Zm-2.41-6.49h4.09l-1.92,5.98-2.17-5.98Zm-.12,6.49V7.85l2.08,5.68h-2.08Zm4.42-8.96c.36,0,.66,.44,.66,.99s-.3,.99-.66,.99-.66-.44-.66-.99,.29-.99,.66-.99Zm3.53-1.99v-.76h.54v-.36h-.91V7.04s0,6.49,0,6.49h-.56V2.56s0-1.11,0-1.11h-.92v.36h.55v.75c-3.86,.17-6.92,1.94-7.02,4.11v7.22h15.27V6.68c-.11-2.16-3.13-3.92-6.96-4.11" style="fill:#108565;"/></g></g></g></svg>