<?xml version="1.0" encoding="UTF-8"?><svg id="Layer_2" xmlns="http://www.w3.org/2000/svg" viewBox="0 0 192.15 51.19"><g id="Layer_1-2"><g><path d="M51.29,0c0,16.82,0,33.64,0,50.47,0,.81,.1,.72-.7,.72-16.63,0-33.26,0-49.89,0-.8,0-.7,.08-.7-.72C0,33.64,0,16.82,0,0H51.29Z" style="fill:#578579;"/><path d="M25.62,51.08c-8.27,0-16.54,0-24.81,.01-.55,0-.71-.12-.71-.7,.02-16.53,.01-33.05,.01-49.58q0-.71,.73-.71c16.54,0,33.07,0,49.61,0q.72,0,.72,.71c0,16.51,0,33.01,0,49.52q0,.74-.76,.74c-8.27,0-16.54,0-24.81,0Z" style="fill:#2a6654;"/><g><path d="M82.06,21.5c-3,.01-6.01,0-9.01,0-.3,0-.38,.11-.37,.39,.02,.7,.04,1.41,0,2.11-.03,.46,.14,.55,.56,.54,1.89-.02,3.78,0,5.67-.02,.32,0,.46,.05,.45,.42-.03,1.07-.02,2.15,0,3.22,0,.27-.08,.41-.34,.47-1.92,.46-3.85,.82-5.83,.68-2.74-.19-4.78-1.93-5.48-4.59-.18-.68-.17-1.38-.26-2.07,.02-.03,.02-.05,0-.08h0s0,0,0,0c.03-.16,.06-.32,.08-.49,.19-1.88,1.04-3.38,2.62-4.43,1.52-1.02,3.24-1.32,5.04-1.22,1.5,.08,2.98,.33,4.46,.61,.31,.06,.47,.04,.54-.31,.15-.78,.31-1.56,.5-2.33,.08-.32-.07-.37-.32-.42-2.43-.54-4.89-.88-7.38-.65-2.31,.22-4.41,.98-6.12,2.6-2.26,2.15-2.96,4.87-2.76,7.89,.29,4.25,3.01,7.49,7.16,8.39,3.86,.84,7.48-.14,11.01-1.65,.03,.01,.06,0,.07-.03,.17-.06,.12-.21,.12-.33,0-2.76,0-5.52,0-8.27,0-.29-.06-.43-.4-.43Zm.16,.4h0s-.02,0-.03,0c-.05,.02,0-.02,.03,0Z" style="fill:#2a6654;"/><path d="M177.56,23.31c-.06-2.44-1.58-4.02-4.01-4.33-2.19-.27-4.32,.03-6.43,.6-.21,.06-.4,.15-.63,.02-1.02-.57-2.13-.71-3.27-.71-2.12,0-4.21,.22-6.3,.56-.38,.06-.52,.19-.51,.6,.02,1.92,.01,3.85,.01,5.77s.02,3.85-.01,5.77c0,.45,.13,.56,.56,.54,.67-.03,1.34-.04,2,0,.46,.03,.59-.1,.58-.57-.02-3,0-5.99-.03-8.99,0-.54,.16-.69,.67-.72,.65-.04,1.29-.08,1.94-.09,2.44-.03,3.3,.81,3.3,3.23,0,2.18,.02,4.37-.01,6.55,0,.51,.15,.62,.62,.59,.68-.04,1.37-.03,2.06,0,.4,.02,.49-.12,.49-.5-.02-2.05,0-4.11-.01-6.16,0-1.02,.1-2.04-.14-3.04-.07-.31,.13-.35,.32-.39,.74-.16,1.49-.27,2.26-.28,2.6-.05,3.46,.79,3.46,3.36,0,2.16,.01,4.33-.01,6.49,0,.43,.12,.54,.53,.52,.74-.03,1.48-.02,2.22,0,.28,0,.39-.08,.39-.37-.01-2.81,.03-5.63-.04-8.44Z" style="fill:#2a6654;"/><path d="M132.39,18.89c-1.96,.04-3.91,.24-5.86,.53-.41,.06-.5,.21-.5,.6,.02,2.77,0,5.55,0,8.32s.01,5.58-.01,8.38c0,.42,.11,.54,.53,.52,.7-.03,1.41-.04,2.11,0,.44,.03,.51-.14,.51-.54-.02-1.33,.02-2.66-.02-3.99-.02-.57,.16-.67,.68-.6,1.17,.17,2.36,.16,3.55,.14,3.39-.05,5.84-2.35,6.12-5.73,.4-4.89-2.23-7.71-7.12-7.63Zm3.79,8.49c-.58,1.41-1.64,2.16-3.15,2.24-1.15,.07-2.29-.05-3.43-.2-.35-.04-.44-.2-.43-.54,.02-1.11,0-2.22,0-3.33s.02-2.18-.01-3.27c-.01-.42,.11-.59,.53-.62,.94-.07,1.88-.15,2.83-.14,2.39,0,3.63,1.09,3.92,3.46,.1,.82,.05,1.62-.27,2.4Z" style="fill:#2a6654;"/><path d="M192.02,22.1c-.56-2.09-2.04-3.01-4.08-3.24-1.94-.22-3.85,.01-5.75,.3-1.22,.18-1.22,.21-1.08,1.47,.01,.09,.01,.18,.02,.28q.13,1.1,1.2,.96c.09-.01,.18-.03,.27-.05,1.49-.2,2.98-.4,4.48-.24,1.26,.13,2,.8,2.14,1.82,.05,.4-.04,.57-.47,.59-1.02,.03-2.04,.1-3.05,.16-1.33,.08-2.66,.17-3.9,.74-1.25,.56-2.02,1.49-2.12,2.88-.11,1.55,.22,2.95,1.59,3.91,1,.7,2.15,.86,3.33,.88,2.53,.05,5.02-.32,7.52-.67,0-.24,.02-.48,.02-.72,0-2.64,.01-5.29,.02-7.93-.04-.37-.08-.74-.13-1.11Zm-2.77,4.57c-.02,.44,0,.89,0,1.33s0,.93,0,1.39c0,.19-.04,.32-.25,.34-1.6,.17-3.2,.44-4.81,.13-1.12-.22-1.66-.9-1.55-1.82,.08-.64,.47-1.02,1.04-1.26,.57-.24,1.19-.29,1.8-.32,1.13-.07,2.26-.1,3.38-.19,.35-.03,.41,.1,.4,.4Z" style="fill:#2a6654;"/><path d="M153.58,27.19c0-1.26,0-2.52,0-3.77,0-.15-.02-.3-.03-.44-.17-2.23-1.3-3.55-3.48-4-2.15-.44-4.28-.14-6.41,.17-1.28,.19-1.28,.21-1.12,1.49,.17,1.39,.16,1.37,1.54,1.17,1.47-.21,2.94-.39,4.43-.25,1.32,.13,2.04,.81,2.16,1.91,.04,.38-.07,.47-.43,.49-1.39,.07-2.77,.15-4.16,.24-.89,.06-1.76,.23-2.59,.56-1.45,.56-2.32,1.58-2.38,3.16-.07,1.67,.41,3.11,1.99,3.97,.9,.49,1.89,.62,2.9,.64,2.42,.04,4.8-.27,7.19-.62,.35-.05,.41-.19,.41-.49-.01-1.41,0-2.81,0-4.22Zm-2.91-.58c-.01,.91,0,1.81,0,2.72,0,.2,0,.38-.25,.4-1.6,.16-3.2,.45-4.8,.13-1.06-.21-1.57-.79-1.55-1.65,.02-.73,.42-1.24,1.25-1.5,.88-.27,1.79-.26,2.69-.3,.18,0,.37-.02,.55-.03h0c.59-.04,1.18-.05,1.77-.11,.3-.03,.33,.09,.33,.34Z" style="fill:#2a6654;"/><path d="M103.4,19.08c-2.2-.62-4.37-.52-6.41,.59-2.43,1.31-3.6,3.99-3.2,7.13,.42,3.22,3.06,5.64,6.23,5.73,0,0,0,0,0,0,0,0,0,0,0,0,.59,.1,1.18,.09,1.77,0,0,0,0,0,0,0,.75,0,1.47-.2,2.15-.48,4.51-1.79,4.82-6.98,3.38-9.77-.84-1.63-2.17-2.71-3.93-3.2Zm-2.52,10.68c-2.4-.01-4-1.67-4.01-4.15,0-2.45,1.63-4.07,4.08-4.05,2.37,.02,3.95,1.65,3.95,4.07,0,2.47-1.63,4.15-4.02,4.13Z" style="fill:#2a6654;"/><path d="M122.57,19.28c-.72,.02-1.45,.04-2.17,0-.49-.03-.61,.11-.61,.6,.03,3.07,0,6.14,.02,9.21,0,.4-.1,.55-.51,.57-.96,.04-1.92,.15-2.88,.17-1.81,.05-2.97-.68-3.1-2.61,0-.05-.03-.1-.05-.16h0c0-2.48,.01-4.96,.01-7.45,0-.11,.05-.27-.14-.3h0c-.93-.05-1.85-.05-2.78,0h0s-.07,0-.11,.01c-.08,.03-.1,.09-.1,.17,0,2.88-.06,5.77,.04,8.65,.09,2.46,1.62,4.02,4.06,4.27,2.8,.29,5.58-.1,8.34-.51,.28-.04,.35-.16,.35-.43,0-3.94,0-7.88,0-11.82,0-.29-.09-.39-.38-.38Z" style="fill:#2a6654;"/><path d="M92.53,18.87c-2.17,.09-4.32,.29-6.45,.64-.29,.05-.63-.02-.86,.25-.01,.2-.03,.4-.03,.6,0,3.26,0,6.53,0,9.79,0,.61,.02,1.21,.03,1.82,.04,.16,.16,.12,.27,.12,.72,0,1.45-.03,2.17,.01,.52,.03,.69-.09,.68-.65-.03-2.94,0-5.88-.03-8.82,0-.44,.13-.54,.55-.57,1.28-.08,2.55-.12,3.83-.12,.31,0,.42-.09,.41-.41-.02-.7-.04-1.41,0-2.11,.03-.46-.1-.6-.57-.58Z" style="fill:#2a6654;"/></g><path d="M42.12,8.07c-.33,.53-.68,.75-.96,1.02-1.66,1.58-3.33,3.16-4.98,4.75-.24,.23-.45,.31-.78,.26-2.31-.39-4.65-.48-6.98-.31-5.13,.37-9.75,2.08-13.69,5.44-2.58,2.2-4.43,4.9-5.51,8.12-.03,.1-.09,.2-.15,.29-.01,.02-.06,.02-.11,.04-.14-.18-.03-.35,.02-.51,.87-3.3,2.5-6.2,4.72-8.77,4.22-4.89,9.51-8.05,15.79-9.56,3.49-.84,7.03-.97,10.6-.78,.64,.03,1.28,0,2.04,0Z" style="fill:#ca521c;"/><path d="M23.44,29.85c-1.16,1.57-2.24,3.02-3.32,4.48-1.5,2.02-3.01,4.04-4.49,6.07-.26,.36-.46,.41-.85,.19-1.35-.76-2.57-1.68-3.61-2.84-.17-.19-.34-.32,.02-.53,3.99-2.42,7.98-4.85,11.96-7.28,.04-.03,.1-.03,.29-.09Z" style="fill:#c3d500;"/><path d="M25.15,29.98c-.12,2.05-.24,4.09-.37,6.14-.13,1.97-.28,3.94-.39,5.92-.02,.4-.12,.53-.54,.54-1.36,.04-2.7-.09-4.04-.27-.49-.07-.34-.3-.21-.57,1.37-2.97,2.74-5.94,4.12-8.91,.44-.95,.88-1.91,1.32-2.86,.04,0,.07,.01,.11,.02Z" style="fill:#c3d500;"/><path d="M28.22,29.81c1.52,.75,3.04,1.49,4.57,2.24,2.11,1.04,4.21,2.09,6.32,3.12,.39,.19,.39,.31,.11,.61-.89,.94-1.84,1.82-2.89,2.59-.24,.18-.38,.19-.59-.05-2.52-2.81-5.04-5.61-7.57-8.41,.02-.03,.03-.06,.05-.09Z" style="fill:#c3d500;"/><path d="M26.33,30c.24,.02,.26,.21,.34,.35,1.9,3.24,3.79,6.48,5.7,9.71,.21,.35,.22,.51-.2,.68-1.07,.42-2.15,.8-3.25,1.13-.44,.13-.57,.02-.64-.41-.4-2.46-.83-4.92-1.25-7.37-.23-1.36-.47-2.71-.7-4.08Z" style="fill:#c3d500;"/><path d="M20.25,29.99c-2.22,.81-4.44,1.63-6.66,2.44-1.39,.51-2.78,1-4.17,1.51-.33,.12-.46,.06-.54-.27-.16-.66-.36-1.32-.34-2.01,.04-.41,0-.81,.01-1.22,.01-.65,.03-.67,.7-.68,1.85,0,3.7,0,5.56,0,1.57,0,3.15,0,4.72,0,.25,0,.53-.05,.7,.22Z" style="fill:#c3d500;"/><path d="M42.53,29.88c-.22,1.06-.69,2.02-1.2,2.96-.09,.17-.2,.22-.4,.15-2.89-1.01-5.79-2.01-8.68-3.01,.14-.23,.36-.23,.59-.23,3.07,0,6.15,0,9.22,0,.16,0,.34-.03,.47,.12Z" style="fill:#c3d500;"/><path d="M32.24,24.67c.63,.53,1.05,1.24,1.67,1.92h-6.65c-.1-.23,.26-.28,.22-.49-.03-.1,0-.15,.11-.12,.51-.35,.78-.93,1.26-1.31,.52-.17,1.06-.07,1.58-.07,.6,0,1.21-.1,1.81,.06Z" style="fill:#fdfdfd;"/><path d="M25.77,20.43c.58,1.79,1.11,3.44,1.66,5.08,.08,.23,.01,.3-.21,.3-.96,0-1.93,0-2.89,0-.24,0-.35-.06-.26-.32,.56-1.64,1.11-3.28,1.7-5.06Z" style="fill:#fdfdfd;"/><path d="M24.04,26.09c.28,.52,.56,1.03,.87,1.6h-5.55c.31-.58,.6-1.15,.9-1.71,.1-.19,.28-.14,.44-.14,.93,0,1.85,0,2.78,0,.24,0,.43,.05,.56,.26h0Z" style="fill:#fdfdfd;"/><path d="M20.25,29.99c-.25-.06-.5-.12-.76-.12-3.4,0-6.8,.01-10.2,0-.49,0-.64,.13-.63,.62,.01,.39,.15,.81-.11,1.18-.15-.55-.07-1.1-.06-1.65,0-.42,.32-.32,.56-.32,3.38,0,6.77,0,10.15,0,.54,0,1.09,0,1.74,0-.26,.23-.47,.26-.68,.31Z" style="fill:#c9da01;"/><path d="M42.53,29.88c-3.21,0-6.42,0-9.63,0-.22,0-.43,.07-.65,.11-.22-.06-.45-.12-.67-.19,0-.04,0-.08,.01-.12h.45c3.34,0,6.69,0,10.03,.01,.15,0,.45-.19,.46,.19Z" style="fill:#cbdc00;"/><path d="M27.59,25.98s-.07,.08-.11,.12c-.42-.21-.87-.11-1.31-.1-.71,.02-1.44-.14-2.14,.1h0c.02-.16,.12-.21,.27-.21,1.05,0,2.1,0,3.15,.02,.05,0,.09,.05,.14,.08Z" style="fill:#1f5e4b;"/><path d="M32.24,24.67c-1.13,.05-2.26,.04-3.39,0-.04-.05-.05-.12,0-.12,1.12,0,2.24,0,3.36,0,.01,0,.04,.02,.04,.03,0,.03-.01,.06-.02,.09Z" style="fill:#1e5e4b;"/><path d="M23.8,25.73h-3.42s0-.03,0-.05h3.42s0,.03,0,.05Z" style="fill:#1d5d4a;"/></g></g></svg>