<?xml version="1.0" encoding="UTF-8"?><svg id="Layer_2" xmlns="http://www.w3.org/2000/svg" viewBox="0 0 133.78 96.51"><g id="Layer_1-2"><g><rect width="133.78" height="96.51"/><path d="M31.3,39.64h-2.92v-8h-8.19v8h-2.9V21.89h2.9v7.26h8.19v-7.26h2.92v17.76Z" style="fill:#fff;"/><path d="M47.81,39.64h-10.05V21.89h10.05v2.45h-7.14v4.83h6.69v2.43h-6.69v5.58h7.14v2.47Z" style="fill:#fff;"/><path d="M53.9,39.64V21.89h2.9v15.27h7.52v2.49h-10.42Z" style="fill:#fff;"/><path d="M69.25,39.64V21.89h2.9v15.27h7.52v2.49h-10.42Z" style="fill:#fff;"/><path d="M97.95,39.64l-1.77-4.93h-6.79l-1.74,4.93h-3.06l6.64-17.83h3.16l6.64,17.83h-3.09Zm-2.54-7.43l-1.66-4.83c-.12-.32-.29-.83-.5-1.53-.21-.7-.36-1.21-.44-1.53-.22,1-.54,2.09-.96,3.27l-1.6,4.63h5.17Z" style="fill:#fff;"/><path d="M116.23,34.82c0,1.58-.57,2.82-1.71,3.72-1.14,.9-2.72,1.35-4.73,1.35s-3.65-.31-4.93-.94v-2.75c.81,.38,1.67,.68,2.58,.9s1.76,.33,2.54,.33c1.15,0,2-.22,2.54-.66,.55-.44,.82-1.02,.82-1.76,0-.66-.25-1.23-.75-1.69-.5-.46-1.54-1.01-3.11-1.64-1.62-.66-2.76-1.4-3.43-2.25-.66-.84-1-1.85-1-3.04,0-1.48,.53-2.65,1.58-3.5,1.05-.85,2.47-1.28,4.24-1.28s3.39,.37,5.08,1.12l-.92,2.37c-1.58-.66-2.99-1-4.23-1-.94,0-1.65,.2-2.14,.61-.49,.41-.73,.95-.73,1.62,0,.46,.1,.86,.29,1.18,.19,.33,.51,.64,.96,.93,.45,.29,1.25,.68,2.41,1.15,1.3,.54,2.26,1.05,2.87,1.52,.61,.47,1.05,1,1.34,1.59,.28,.59,.43,1.29,.43,2.09Z" style="fill:#fff;"/><g><path d="M31.99,55.72c0,2.93-.81,5.17-2.44,6.72s-3.97,2.33-7.03,2.33h-4.97v-17.76h5.49c2.83,0,5.02,.76,6.6,2.28,1.57,1.52,2.36,3.66,2.36,6.43Zm-3.06,.1c0-4.25-1.99-6.38-5.96-6.38h-2.51v12.89h2.06c4.28,0,6.41-2.17,6.41-6.51Z" style="fill:#fff;"/><path d="M38.51,64.77v-17.76h2.9v17.76h-2.9Z" style="fill:#fff;"/><path d="M51.08,57.68v7.09h-2.9v-17.76h5.02c2.29,0,3.99,.43,5.09,1.29,1.1,.86,1.65,2.15,1.65,3.89,0,2.21-1.15,3.79-3.45,4.73l5.02,7.86h-3.3l-4.25-7.09h-2.87Zm0-2.41h2.02c1.35,0,2.33-.25,2.94-.75,.61-.5,.91-1.25,.91-2.24s-.33-1.72-.98-2.16c-.66-.44-1.64-.66-2.96-.66h-1.92v5.81Z" style="fill:#fff;"/><path d="M76.98,64.77h-10.05v-17.76h10.05v2.45h-7.14v4.83h6.69v2.43h-6.69v5.58h7.14v2.47Z" style="fill:#fff;"/><path d="M91.37,49.01c-1.67,0-2.98,.59-3.94,1.77-.96,1.18-1.43,2.81-1.43,4.9s.46,3.83,1.38,4.94c.92,1.12,2.25,1.68,3.99,1.68,.75,0,1.48-.07,2.19-.22s1.44-.34,2.2-.58v2.49c-1.39,.53-2.97,.79-4.74,.79-2.6,0-4.6-.79-5.99-2.36-1.39-1.57-2.09-3.83-2.09-6.76,0-1.85,.34-3.46,1.01-4.85,.68-1.38,1.65-2.45,2.93-3.18,1.28-.74,2.78-1.11,4.51-1.11,1.81,0,3.49,.38,5.03,1.14l-1.04,2.42c-.6-.28-1.23-.53-1.9-.75-.67-.21-1.37-.32-2.11-.32Z" style="fill:#fff;"/><path d="M110.23,64.77h-2.9v-15.27h-5.22v-2.49h13.35v2.49h-5.22v15.27Z" style="fill:#fff;"/></g><g><path d="M18.95,76.9v2.13h-1.58v-5.86h1.92c1.59,0,2.39,.58,2.39,1.73,0,.68-.33,1.2-.99,1.58l1.71,2.55h-1.8l-1.24-2.13h-.4Zm0-1.19h.3c.55,0,.83-.24,.83-.73,0-.4-.27-.61-.81-.61h-.31v1.34Z" style="fill:#fff;"/><path d="M27.15,79.04h-3.48v-5.86h3.48v1.27h-1.9v.92h1.76v1.27h-1.76v1.11h1.9v1.29Z" style="fill:#fff;"/><path d="M31.51,79.04h-1.58v-4.57h-1.43v-1.3h4.44v1.3h-1.43v4.57Z" style="fill:#fff;"/><path d="M39.55,79.04h-1.59v-2.39h-1.84v2.39h-1.59v-5.86h1.59v2.17h1.84v-2.17h1.59v5.86Z" style="fill:#fff;"/><path d="M41.57,79.04v-5.86h1.59v5.86h-1.59Z" style="fill:#fff;"/><path d="M50.76,79.04h-2.08l-2.14-4.13h-.04c.05,.65,.08,1.15,.08,1.49v2.64h-1.4v-5.86h2.07l2.13,4.07h.02c-.04-.59-.06-1.07-.06-1.42v-2.65h1.41v5.86Z" style="fill:#fff;"/><path d="M57.78,79.04h-1.79l-1.16-2.24-.47,.28v1.96h-1.59v-5.86h1.59v2.55c.08-.16,.24-.41,.49-.75l1.23-1.8h1.73l-1.85,2.63,1.82,3.24Z" style="fill:#fff;"/><path d="M62.04,79.04v-5.86h1.59v5.86h-1.59Z" style="fill:#fff;"/><path d="M71.23,79.04h-2.08l-2.14-4.13h-.04c.05,.65,.08,1.15,.08,1.49v2.64h-1.4v-5.86h2.07l2.13,4.07h.02c-.04-.59-.06-1.07-.06-1.42v-2.65h1.41v5.86Z" style="fill:#fff;"/><path d="M77.08,77.26c0,.36-.09,.69-.28,.97-.18,.28-.45,.5-.8,.66-.35,.16-.76,.23-1.22,.23-.39,0-.72-.03-.98-.08-.26-.05-.54-.15-.83-.29v-1.41c.3,.16,.62,.28,.94,.36,.33,.09,.63,.13,.9,.13,.24,0,.41-.04,.52-.12,.11-.08,.16-.19,.16-.31,0-.08-.02-.15-.07-.21-.04-.06-.11-.12-.21-.18-.1-.06-.36-.19-.78-.38-.38-.17-.67-.34-.86-.51-.19-.16-.33-.35-.43-.56-.09-.21-.14-.46-.14-.75,0-.54,.2-.96,.59-1.26,.39-.3,.93-.45,1.62-.45,.61,0,1.23,.14,1.86,.42l-.49,1.22c-.55-.25-1.02-.38-1.42-.38-.21,0-.36,.04-.45,.11-.09,.07-.14,.16-.14,.27,0,.11,.06,.22,.18,.31s.44,.26,.97,.5c.51,.23,.86,.47,1.05,.73s.29,.59,.29,.98Z" style="fill:#fff;"/><path d="M83.72,73.17v3.53c0,.77-.22,1.36-.65,1.78-.43,.42-1.06,.63-1.88,.63s-1.41-.2-1.84-.61-.64-1-.64-1.76v-3.57h1.59v3.44c0,.41,.08,.72,.23,.9,.16,.19,.38,.28,.69,.28,.32,0,.56-.09,.7-.28,.15-.19,.22-.49,.22-.91v-3.43h1.58Z" style="fill:#fff;"/><path d="M87.28,76.9v2.13h-1.58v-5.86h1.92c1.59,0,2.39,.58,2.39,1.73,0,.68-.33,1.2-.99,1.58l1.71,2.55h-1.8l-1.24-2.13h-.4Zm0-1.19h.3c.55,0,.83-.24,.83-.73,0-.4-.27-.61-.81-.61h-.31v1.34Z" style="fill:#fff;"/><path d="M95.6,79.04l-.29-1.1h-1.9l-.3,1.1h-1.74l1.91-5.89h2.11l1.94,5.89h-1.73Zm-.62-2.4l-.25-.96c-.06-.21-.13-.49-.21-.83-.08-.34-.14-.58-.17-.73-.02,.14-.07,.36-.14,.67-.07,.31-.23,.93-.47,1.85h1.25Z" style="fill:#fff;"/><path d="M104.29,79.04h-2.08l-2.14-4.13h-.04c.05,.65,.08,1.15,.08,1.49v2.64h-1.4v-5.86h2.07l2.13,4.07h.02c-.04-.59-.06-1.07-.06-1.42v-2.65h1.41v5.86Z" style="fill:#fff;"/><path d="M108.92,74.39c-.38,0-.67,.15-.88,.46-.21,.31-.32,.73-.32,1.28,0,1.13,.43,1.69,1.29,1.69,.26,0,.51-.04,.75-.11,.24-.07,.49-.16,.73-.26v1.34c-.49,.22-1.04,.32-1.66,.32-.88,0-1.56-.26-2.04-.77-.47-.51-.71-1.26-.71-2.23,0-.61,.11-1.14,.34-1.6s.56-.81,.99-1.06,.93-.37,1.51-.37c.63,0,1.24,.14,1.82,.41l-.49,1.25c-.22-.1-.43-.19-.65-.26-.22-.07-.45-.1-.7-.1Z" style="fill:#fff;"/><path d="M115.87,79.04h-3.48v-5.86h3.48v1.27h-1.9v.92h1.76v1.27h-1.76v1.11h1.9v1.29Z" style="fill:#fff;"/></g></g></g></svg>