<?xml version="1.0" encoding="UTF-8"?><svg id="Layer_2" xmlns="http://www.w3.org/2000/svg" viewBox="0 0 148.24 43.56"><g id="Layer_1-2"><g id="Layer_2-2"><g id="Layer_1-2"><path d="M147.07,.19V5.92h-3.54c-4.57-.01-7.23,8.94-.93,10.19v-4.49h5.63v10.84c-9.79,0-15.25-1.94-15.41-11.54-.12-5.71,4.42-10.68,10.36-10.73h3.9ZM119.94,.19V5.79h-3.43c-.96,.13-1.15,.96-.67,1.6l4.6,4.54c3.48,3.42-.54,10.52-4.98,10.52h-7.79v-6.29h5.9c1-.04,1.38-1.65,.63-2.36l-4.92-4.49c-2.47-3.03-1.07-9.09,4.45-9.09l6.2-.05Zm-36.51,22.34L91.99,.09h7.19l7.9,22.43h-6.58l-1.18-3.69h-6.45l1.6-4.96h3.09l-2.39-5.73-5.27,14.37h-6.46ZM123.45,.19V22.52h7.75V.19h-7.75Zm-48.58-.06V22.52h7.75V.19l-7.75-.06ZM52.48,.13V22.52h6.12V12.1l6.19,10.42h6.43V.19h-6.53V10.86L58.39,.19l-5.91-.06Zm-15.61,6.93L33.14,.24h-7.1l-2.56,22.14h7.27l1.29-12.16,4.83,7.96,4.81-7.96,1.31,12.16h7.21L47.71,.24h-7.1l-3.74,6.83ZM11.27,0c6.23,0,11.27,5.05,11.27,11.27,0,6.23-5.05,11.27-11.27,11.27C5.05,22.54,.01,17.51,0,11.29,0,5.06,5.04,0,11.27,0c0,0,0,0,0,0Zm0,6.14c2.84,0,5.15,2.29,5.16,5.13,0,2.84-2.29,5.15-5.13,5.16-2.84,0-5.15-2.29-5.16-5.13,0,0,0,0,0,0-.01-2.84,2.28-5.14,5.12-5.15,0,0,.01,0,.02,0Z" style="fill:#008641; fill-rule:evenodd;"/><polygon points=".04 30.08 148.24 30.08 148.24 27.83 .04 27.81 .04 30.08" style="fill:#ed1c24;"/><path d="M3.83,43.5h-1L.1,35.54H1.42l1.92,5.79,1.92-5.79h1.31l-2.73,7.96Z" style="fill:#231f20;"/><path d="M7.71,43.5v-7.96h1.29v7.96h-1.29Z" style="fill:#231f20;"/><path d="M11.17,43.5v-7.96h5.31v1.06h-4.06v2.33h3.46v1.06h-3.46v2.42h4.06v1.09h-5.31Z" style="fill:#231f20;"/><path d="M23.31,43.5l-3.85-5.61v5.61h-1.25v-7.96h1.16l3.83,5.58v-5.58h1.25v7.96h-1.14Z" style="fill:#231f20;"/><path d="M31.73,43.5l-3.84-5.61v5.61h-1.21v-7.96h1.12l3.83,5.58v-5.58h1.27v7.96h-1.18Z" style="fill:#231f20;"/><path d="M39.83,43.5l-.56-1.61h-3.27l-.54,1.61h-1.36l3-7.96h1.02l3.07,7.96h-1.36Zm-2.17-6.14l-1.29,3.52h2.56l-1.27-3.52Z" style="fill:#231f20;"/><path d="M45.2,43.5v-7.96h1.25v7.96h-1.25Z" style="fill:#231f20;"/><path d="M53.77,43.5l-3.86-5.61v5.61h-1.28v-7.96h1.18l3.81,5.58v-5.58h1.27v7.96h-1.13Z" style="fill:#231f20;"/><path d="M59.29,43.56c-1.25,0-2.15-.29-2.92-1.08l.84-.77c.58,.59,1.27,.77,2.1,.77,1.1,0,1.69-.44,1.69-1.23,.02-.31-.09-.61-.29-.84-.21-.19-.43-.27-.94-.33l-.96-.12c-.58-.03-1.13-.27-1.56-.67-.42-.33-.6-.85-.6-1.5,0-1.38,1.02-2.29,2.72-2.29,1.13,0,1.89,.27,2.59,.87l-.79,.77c-.47-.47-1.06-.6-1.79-.6-.98,0-1.48,.52-1.48,1.23-.03,.27,.08,.54,.29,.71,.25,.22,.58,.36,.92,.38l.96,.17c.77,.08,1.21,.27,1.52,.56,.47,.4,.72,.99,.69,1.61,0,1.5-1.26,2.38-2.97,2.38Z" style="fill:#231f20;"/><path d="M66.82,43.56c-1.71,0-2.96-1.1-2.96-2.76v-5.25h1.25v5.21c0,1.11,.69,1.73,1.71,1.73s1.73-.63,1.73-1.73v-5.21h1.25v5.25c0,1.66-1.3,2.76-2.98,2.76Z" style="fill:#231f20;"/><path d="M76.43,43.5l-1.75-3.38h-1.6v3.38h-1.25v-7.96h3.23c1.54,0,2.56,.98,2.56,2.33,0,1.15-.71,1.83-1.65,2.08l1.89,3.54h-1.42Zm-1.46-6.9h-1.89v2.5h1.89c.81,0,1.39-.44,1.39-1.23s-.58-1.27-1.39-1.27Z" style="fill:#231f20;"/><path d="M84.26,43.5l-.58-1.61h-3.27l-.56,1.61h-1.31l3.02-7.96h1l3.04,7.96h-1.34Zm-2.19-6.14l-1.29,3.52h2.56l-1.27-3.52Z" style="fill:#231f20;"/><path d="M91.89,43.5l-3.82-5.61v5.61h-1.29v-7.96h1.18l3.81,5.58v-5.58h1.27v7.96h-1.15Z" style="fill:#231f20;"/><path d="M97.91,43.56c-.81,0-1.58-.3-2.17-.85-.83-.79-.81-1.65-.81-3.19s-.02-2.42,.81-3.19c.58-.56,1.36-.86,2.17-.83,.86-.03,1.69,.3,2.29,.91l-.84,.81c-.44-.42-.75-.64-1.46-.64-.45-.02-.89,.14-1.23,.44-.39,.44-.47,.89-.47,2.5s.07,2.06,.47,2.48c.33,.32,.77,.49,1.23,.47,.71,0,1.02-.27,1.46-.71l.84,.84c-.59,.63-1.43,.98-2.29,.96Z" style="fill:#231f20;"/><path d="M101.93,43.5v-7.96h5.29v1.06h-4.01v2.33h3.44v1.06h-3.45v2.42h4.01v1.09h-5.28Z" style="fill:#231f20;"/><path d="M116.72,42.6c-.58,.63-1.41,.98-2.27,.96-.8,0-1.56-.31-2.14-.85-.79-.79-.79-1.65-.79-3.19s0-2.42,.79-3.19c.58-.55,1.35-.85,2.14-.83,1.13,0,1.77,.31,2.54,1.04l-.87,.81c-.54-.52-.89-.77-1.67-.77-.44,0-.86,.16-1.18,.46-.42,.42-.47,.88-.47,2.48s.06,2.06,.47,2.48c.31,.31,.74,.48,1.18,.47,.51,.02,1.01-.18,1.36-.56,.28-.36,.42-.81,.39-1.27v-.44h-1.75v-.98h3v1.18c0,1-.17,1.67-.73,2.21Z" style="fill:#231f20;"/><path d="M123.86,43.5l-1.75-3.38h-1.56v3.38h-1.27v-7.96h3.19c1.61,0,2.6,.98,2.6,2.33,0,1.15-.71,1.83-1.67,2.08l1.92,3.54h-1.45Zm-1.5-6.9h-1.81v2.5h1.81c.9,0,1.46-.44,1.46-1.23s-.56-1.27-1.46-1.27Z" style="fill:#231f20;"/><path d="M131.82,42.71c-.61,.55-1.41,.85-2.23,.85-.8,0-1.58-.3-2.17-.85-.83-.79-.81-1.65-.81-3.19s-.02-2.42,.81-3.19c.58-.55,1.36-.85,2.17-.83,.82-.02,1.62,.28,2.23,.83,.77,.77,.75,1.65,.75,3.19s.02,2.4-.75,3.19Zm-.98-5.67c-.34-.3-.79-.47-1.25-.46-.45,0-.88,.16-1.21,.46-.42,.42-.5,.88-.5,2.48s.08,2,.5,2.48c.32,.32,.76,.49,1.21,.47,.46,.02,.92-.15,1.25-.47,.42-.47,.47-.87,.47-2.48s-.04-2.06-.47-2.48h0Z" style="fill:#231f20;"/><path d="M137.3,43.56c-1.69,0-2.94-1.1-2.94-2.76v-5.25h1.23v5.21c0,1.11,.68,1.73,1.71,1.73s1.73-.63,1.73-1.73v-5.21h1.25v5.25c0,1.66-1.31,2.76-2.98,2.76Z" style="fill:#231f20;"/><path d="M145.49,40.35h-1.87v3.14h-1.27v-7.96h3.14c1.6,0,2.63,1.04,2.63,2.39s-1.02,2.42-2.63,2.42Zm-.05-3.76h-1.83v2.67h1.83c.83,0,1.42-.47,1.42-1.33s-.58-1.33-1.42-1.33Z" style="fill:#231f20;"/></g></g></g></svg>