<?xml version="1.0" encoding="UTF-8"?><svg id="Layer_2" xmlns="http://www.w3.org/2000/svg" viewBox="0 0 600 106.4"><g id="Layer_1-2"><g id="Layer_1-2"><path d="m27,67.4l-11.5-2.8c-1.7-.4-4.8-1.1-4.8-4.6,0-4,4.1-5.4,7.9-5.4,8.5,0,9.2,5,9.4,6.8v.3h10.1v-.3c-.1-7.2-5.1-15.6-18.8-15.6-17.2,0-18.5,11.4-18.5,14.9,0,10.6,7.8,12.4,15.3,14.2l5.1,1.2c5.2,1.2,8.3,2.2,8.3,5.6,0,3.9-3.2,5.8-9.6,5.8-8.7,0-9.7-5.1-9.7-7.3v-.3H0v.3c0,4.9,2,16.1,20.6,16.1,3.2,0,19-.7,19-15.8,0-8.9-6.1-11.5-12.6-13.1" style="fill:#1b171d;"/><rect x="46.7" y="46.9" width="10.5" height="48" style="fill:#1b171d;"/><path d="m88.1,77.4h11c-2.2,9.2-9.6,9.7-11.1,9.7-6.1,0-13.5-2.8-13.5-15.9,0-12.3,6.9-16.7,13.3-16.7,7,0,10.1,5.9,10.1,7.5v.3h10.6v-.3c-.4-5.6-5.4-16.2-21.3-16.2-17.2,0-23.3,13.6-23.3,25.3,0,17.3,11.1,25.1,22.1,25.1,8.2,0,12-3.9,14.6-6.8l.9,5.6h7.2v-26.2h-20.5v8.6" style="fill:#1b171d;"/><polyline points="147.1 79.4 128.4 46.9 117.7 46.9 117.7 95 127.5 95 127.5 61.7 146.7 95 156.9 95 156.9 46.9 147.1 46.9 147.1 79.4" style="fill:#1b171d;"/><path d="m179.2,46.9l-17.1,48h11.1l3.3-9.8h17.1l3,9.8h11.4l-16.9-48h-11.9m11.3,29.5h-11.2l5.7-17.8,5.5,17.8Z" style="fill:#1b171d;"/><polyline points="224.1 46.9 213.6 46.9 213.6 95 247.7 95 247.7 85.8 224.1 85.8 224.1 46.9" style="fill:#1b171d;"/><rect x="270.6" y="46.9" width="10.5" height="48" style="fill:#1b171d;"/><path d="m312,46.9h-21.3v48h20.9c14.8,0,20-13,20-25.1,0-5.3-1.4-22.9-19.6-22.9m-1.7,8.8c4.6,0,10.6,1.5,10.6,14.8,0,3.7-.7,15.6-10.5,15.6h-9.4v-30.5h9.3v.1Z" style="fill:#1b171d;"/><path d="m366.3,78.4c0,6-2.9,8.7-9.2,8.7-5.1,0-8.1-3.4-8.1-9.2v-31h-10.7v31.7c.2,5.2,1.4,9,3.8,11.7,4.6,5.1,11.5,5.9,15.3,5.9,12.9,0,19.8-6.3,19.8-18.1v-31.1h-10.8v31.4" style="fill:#1b171d;"/><polyline points="415.1 79.3 396.5 46.9 385.7 46.9 385.7 95 395.6 95 395.6 61.8 414.8 95 425 95 425 46.9 415.1 46.9 415.1 79.3" style="fill:#1b171d;"/><path d="m459,46.9h-11.8l-17.2,48h11.1l3.3-9.8h17l3.1,9.8h11.4l-16.9-48m-.4,29.5h-11.3l5.7-17.8,5.6,17.8h0Z" style="fill:#1b171d;"/><path d="m531.7,46.9h22.3c-13.4,36.7-18.5,50.6-20.5,55.9-18.4-7.8-31.1-27.4-31.1-49.6,0-28.9,21.4-53.2,48.8-53.2s48.8,24.3,48.8,53.2-21.4,53.2-48.8,53.2c-3.7,0-7.4-.5-10.8-1.3l21.3-58.2h15.2l-17.5,47.8c16.8-4.2,29.9-20.8,29.9-41.5,0-24-17.5-42.5-38.1-42.5s-38.1,18.5-38.1,42.5c0,9.4,2.6,17.9,7.2,24.8l11.4-31.1" style="fill:#004288;"/></g></g></svg>