<?xml version="1.0" encoding="UTF-8"?><svg id="Layer_2" xmlns="http://www.w3.org/2000/svg" viewBox="0 0 77.01 59.24"><g id="Layer_1-2"><path d="m.01,41.9h3.16v9.32c0,3.08,1.84,4.93,4.25,4.93s4.26-1.85,4.26-4.93v-9.32h3.16v9.99c0,3.88-2.91,7.2-7.42,7.2s-7.42-3.31-7.42-7.2v-9.99h.01Z" style="fill:#0066b3; fill-rule:evenodd;"/><polygon points="32.41 58.72 32.41 41.9 29.28 41.9 29.28 52.4 20.09 41.9 18.39 41.9 18.39 58.7 21.51 58.7 21.51 48.24 30.68 58.72 32.41 58.72" style="fill:#0066b3; fill-rule:evenodd;"/><rect x="36.15" y="41.9" width="3.25" height="16.8" style="fill:#0066b3;"/><path d="m60.23,50.3c0-4.94-4.04-8.94-9.03-8.94s-9.03,4-9.03,8.94,4.04,8.94,9.03,8.94c1.9,0,3.66-.58,5.11-1.57l1.47,1.47,2.06-2.06-1.42-1.42c1.13-1.49,1.81-3.35,1.81-5.36m-9.03,6.13c-3.24,0-5.86-2.75-5.86-6.13s2.62-6.13,5.86-6.13,5.86,2.75,5.86,6.13c0,1.16-.31,2.24-.84,3.16l-1.94-1.94-2.06,2.06,1.98,1.98c-.87.55-1.9.87-3,.87Z" style="fill:#0066b3; fill-rule:evenodd;"/><path d="m73.55,58.7h3.46l-7.16-16.8h-2.18l-7.34,16.8h3.37l1.32-3.16h7.24l1.29,3.16Zm-7.37-5.93l2.52-6.04,2.45,6.04h-4.97Z" style="fill:#0066b3; fill-rule:evenodd;"/><path d="m26.77,33.34H7.97l2.16-3.84h11.05c.48.45.99.87,1.51,1.28,1.23.95,2.6,1.84,4.08,2.56" style="fill:#0066b3; fill-rule:evenodd;"/><path d="m30.91,5.46c-.61.51-4.49,8.06.29,14.71,1.35,1.87,3.32,4.16,5.62,5.5,2.4,1.39,4,1.75,5.03,2.02,1.81.49,4.62.7,8.24.89,2.93.16,8.92.19,9.97.19h1.12s2.57,4.9,2.57,4.9c0,0-8.71.04-12.76-.18-4.56-.24-8.09-.5-10.38-1.12-1.3-.35-3.31-.8-6.34-2.55-2.91-1.69-5.89-4.64-7.43-7.1-3.73-5.94-2.79-9.92-2.3-11.88,1.06-1.48,2.44-2.89,3.92-3.94,1.07-.78,1.74-1.09,2.45-1.44" style="fill:#0066b3; fill-rule:evenodd;"/><path d="m36.95,33.03c-1.11.21-2.19.31-3.19.31-3.68,0-7.15-1.73-10.02-3.94-3.44-2.64-5.95-6.32-6.58-10.33-.09-.46-.14-.94-.2-1.6-.26-2.74.14-6.19,2.06-9.49,1.66-2.85,4.14-5.32,8.23-7.03,1.7-.71,5.37-1.52,9.6-.39,4.45,1.23,8.35,3.99,10.85,7.62,0,0-3.84-4.99-10.41-5.57-.3-.03-.59-.04-.89-.05-3.25-.06-6.35,1.05-8.94,2.91-1.65,1.18-3.11,2.65-4.23,4.36-.06.09-.26.39-.52.85l-.08.14c-.06.1-.11.21-.17.32-.8,1.52-1.91,4.26-1.95,7.71-.06,4.45,1.94,7.65,2.68,8.73.02.03,1.87,1.28,4.68,1.81,1.14.22,2.21.25,3.12.23.77.62,1.58,1.19,2.42,1.68,1.36.8,2.53,1.34,3.54,1.73" style="fill:#0066b3; fill-rule:evenodd;"/><path d="m44.11,7c2.42,1.44,5.91,5.95,6.07,10.06.26,3.92-1.71,7.74-3.02,9.61-2.13-.15-3.74-.34-4.85-.65-.35-.09-.77-.2-1.26-.35,1.39-1.28,3.46-3.7,4.51-7.41,1.45-5.17.02-8.69-1.45-11.26" style="fill:#0066b3; fill-rule:evenodd;"/></g></svg>